<svg width="600" height="600" viewBox="0 0 822 649" fill="none" xmlns="http://www.w3.org/2000/svg">
<g id="Home">
<g id="Student">
<path id="Vector" d="M38.0862 544.096V545.72C38.0885 548.41 39.1584 550.99 41.0609 552.893C42.9635 554.795 45.5432 555.865 48.2338 555.867H134.286C136.977 555.866 139.557 554.797 141.46 552.894C143.363 550.991 144.432 548.411 144.433 545.72V544.096C144.438 541.721 143.604 539.421 142.079 537.602C141.571 536.997 140.996 536.453 140.366 535.978H95.7325C95.1943 535.978 94.6782 535.764 94.2977 535.383C93.9171 535.003 93.7032 534.487 93.703 533.949H48.2338C45.5436 533.952 42.9647 535.023 41.0625 536.925C39.1602 538.827 38.0899 541.406 38.0862 544.096V544.096Z" fill="#3F3D56"/>
<path id="Vector_2" d="M85.581 630.151H96.1345L96.1345 555.464H85.581L85.581 630.151Z" fill="#3F3D56"/>
<path id="Vector_3" d="M55.5439 629.78C55.5439 630.92 71.5362 630.221 91.2635 630.221C110.991 630.221 126.983 630.92 126.983 629.78C126.983 628.64 110.991 619.597 91.2635 619.597C71.5361 619.597 55.5439 628.64 55.5439 629.78Z" fill="#3F3D56"/>
<path id="Vector_4" d="M54.647 542.383L90.6588 548.131L132.499 554.812L147.007 557.126C148.399 557.345 149.822 557.004 150.964 556.176C152.105 555.348 152.871 554.102 153.095 552.709L153.753 548.602L154.362 544.778L154.865 541.628C154.978 540.924 154.948 540.204 154.775 539.512C154.602 538.819 154.29 538.17 153.858 537.602C153.348 536.903 152.669 536.345 151.885 535.978H95.7325C95.1943 535.978 94.6782 535.764 94.2977 535.383C93.9171 535.003 93.7032 534.487 93.703 533.949V532.349C93.7032 531.811 93.9171 531.295 94.2977 530.914C94.6782 530.534 95.1943 530.32 95.7325 530.32H117.798L107.626 528.696L76.3546 523.703L58.0972 520.789C56.7012 520.568 55.2744 520.909 54.13 521.739C52.9855 522.568 52.2167 523.818 51.9924 525.213L50.2225 536.286C50.0064 537.681 50.3503 539.104 51.179 540.246C52.0078 541.388 53.2543 542.156 54.647 542.383V542.383Z" fill="#6C63FF"/>
<path id="Vector_5" d="M132.499 540.841V602.709C132.501 604.118 133.062 605.47 134.059 606.466C135.056 607.463 136.407 608.024 137.817 608.026H149.044C150.454 608.024 151.805 607.463 152.802 606.466C153.799 605.47 154.36 604.118 154.362 602.709V540.841C154.363 539.667 153.972 538.527 153.249 537.602C152.714 536.891 152.004 536.331 151.187 535.978H135.665C134.853 536.334 134.145 536.893 133.612 537.602C132.89 538.527 132.499 539.667 132.499 540.841V540.841Z" fill="#6C63FF"/>
<path id="Vector_6" d="M98.6631 436.125C98.7202 436.677 98.8626 437.217 99.0853 437.725C99.4233 438.501 99.9442 439.183 100.603 439.714L100.628 439.73L132.662 465.716L133.133 466.089L139.765 471.472L141.77 473.095H176.459L174.462 471.472L147.047 449.228L128.676 434.323L114.38 422.731C113.543 422.049 112.517 421.641 111.441 421.562C111.437 421.557 111.431 421.554 111.425 421.554C111.106 421.531 110.785 421.536 110.467 421.57C109.99 421.618 109.523 421.733 109.079 421.911C108.775 422.021 108.486 422.168 108.218 422.349C107.713 422.657 107.266 423.05 106.895 423.51L99.9296 432.091L99.8242 432.229C99.3826 432.769 99.0526 433.392 98.8533 434.061C98.654 434.73 98.5893 435.431 98.6631 436.125V436.125Z" fill="#6C63FF"/>
<path id="Vector_7" d="M100.628 439.73C101.232 441.239 102.11 442.624 103.218 443.813L124.544 466.723C125.059 467.196 125.663 467.563 126.321 467.803C126.978 468.042 127.676 468.15 128.375 468.119C129.075 468.088 129.761 467.919 130.395 467.622C131.028 467.326 131.597 466.907 132.069 466.39L132.662 465.716L132.922 465.424L142.136 455.089L146.097 450.641C146.361 450.366 146.59 450.061 146.779 449.732C146.877 449.569 146.966 449.399 147.047 449.228C147.379 448.47 147.532 447.645 147.493 446.817C147.466 446.113 147.298 445.422 146.998 444.785C146.698 444.147 146.273 443.577 145.748 443.107L121.02 424.208C118.292 422.116 114.857 421.167 111.441 421.562C111.437 421.557 111.431 421.554 111.425 421.554C110.666 421.649 109.917 421.806 109.184 422.024C108.859 422.114 108.543 422.227 108.218 422.349C106.122 423.138 104.263 424.452 102.82 426.165C101.25 428.01 100.215 430.25 99.8287 432.641C99.4423 435.033 99.7188 437.485 100.628 439.73L100.628 439.73Z" fill="#2F2E41"/>
<path id="Vector_8" d="M90.5017 402.695C112.974 402.695 131.191 384.477 131.191 362.005C131.191 339.533 112.974 321.315 90.5017 321.315C68.0295 321.315 49.8121 339.533 49.8121 362.005C49.8121 384.477 68.0295 402.695 90.5017 402.695Z" fill="#6C63FF"/>
<path id="Vector_9" d="M79.6668 536.774L94.7582 539.177L95.0995 539.233L118.041 542.895L132.499 545.208L153.753 548.602L154.362 548.699L157.519 549.202L172.026 551.516C173.419 551.736 174.842 551.394 175.983 550.566C177.125 549.739 177.891 548.492 178.115 547.1L179.381 539.177L179.885 536.027C179.885 536.011 179.893 535.994 179.893 535.978H95.7325C95.1943 535.978 94.6782 535.764 94.2977 535.383C93.9171 535.003 93.7032 534.487 93.703 533.949V532.349C93.7032 531.811 93.9171 531.295 94.2977 530.914C94.6782 530.534 95.1943 530.32 95.7325 530.32H122.327V521.447L120.704 521.187L112.683 519.904L83.109 515.188C81.715 514.966 80.2901 515.307 79.1471 516.135C78.004 516.963 77.2362 518.21 77.0121 519.604L76.3545 523.703L75.2422 530.685C75.0243 532.079 75.3676 533.502 76.1969 534.643C77.0262 535.784 78.2739 536.55 79.6668 536.774V536.774Z" fill="#6C63FF"/>
<path id="Vector_10" d="M35.1228 500.827C35.1228 533.997 38.4921 553.838 90.4479 548.155C90.5209 548.147 90.5859 548.139 90.6588 548.131C99.9256 547.215 109.09 545.463 118.041 542.895C122.693 541.536 127.214 539.765 131.55 537.602C132.572 537.082 133.555 536.538 134.521 535.978H95.7326C95.1944 535.978 94.6783 535.764 94.2977 535.383C93.9172 535.003 93.7033 534.487 93.7031 533.949V532.349C93.7033 531.811 93.9172 531.295 94.2977 530.914C94.6783 530.534 95.1944 530.32 95.7326 530.32H122.327V479.046C122.33 477.468 122.957 475.956 124.073 474.841C125.188 473.725 126.7 473.098 128.278 473.095H149.913C149.726 472.56 149.539 472.016 149.337 471.472C147.307 465.855 144.901 460.382 142.136 455.089C138.347 447.739 133.838 440.783 128.676 434.323C125.081 429.822 121.045 425.691 116.629 421.992C108.486 415.27 99.6211 411.114 90.6262 411.114C57.4559 411.114 35.1228 467.656 35.1228 500.827Z" fill="#2F2E41"/>
<path id="Vector_11" d="M89.6468 377.086L89.6045 375.565C92.4333 375.487 94.9272 375.309 96.8011 373.94C97.3324 373.53 97.7691 373.01 98.0815 372.416C98.394 371.822 98.5748 371.168 98.6117 370.497C98.6446 370.088 98.5826 369.676 98.4306 369.295C98.2786 368.913 98.0406 368.571 97.7352 368.297C96.4912 367.246 94.4895 367.586 93.0306 368.255L91.7725 368.832L94.1851 351.201L95.6916 351.407L93.6394 366.405C94.4794 366.093 95.3841 365.997 96.271 366.124C97.1578 366.252 97.9986 366.6 98.7167 367.136C99.1998 367.557 99.5788 368.085 99.8242 368.677C100.07 369.27 100.175 369.911 100.131 370.551C100.087 371.451 99.8459 372.331 99.4257 373.129C99.0054 373.926 98.4157 374.622 97.6981 375.168C95.2902 376.928 92.1612 377.015 89.6468 377.086Z" fill="#2F2E41"/>
<path id="Vector_12" d="M111.331 352.701H103.142V354.221H111.331V352.701Z" fill="#2F2E41"/>
<path id="Vector_13" d="M85.4816 352.701H77.2922V354.221H85.4816V352.701Z" fill="#2F2E41"/>
<path id="Vector_14" d="M58.028 350.825C61.1926 346.062 66.7609 344.042 72.2517 343.551C78.4322 342.998 84.4041 344.19 90.4383 345.348C97.0793 346.622 104.108 347.815 110.799 346.204C113.759 345.519 116.526 344.171 118.889 342.262C121.252 340.352 123.152 337.931 124.443 335.181C126.893 329.816 127.421 323.77 125.938 318.061C124.19 311.998 120.64 306.61 115.76 302.611C106.129 294.375 93.0972 290.674 80.5625 291.022C68.0753 291.345 56.0061 295.589 46.0651 303.152C36.1076 310.989 29.1005 321.97 26.1876 334.302C23.1418 346.533 24.134 359.421 29.0162 371.042C31.7592 377.405 35.7262 383.142 38.7873 389.344C41.6374 395.12 43.8324 401.834 42.059 408.276C41.2793 411.15 39.7818 413.778 37.7071 415.913C35.6324 418.049 33.0488 419.622 30.199 420.485C27.5896 421.17 24.8284 420.989 22.3307 419.969C19.8331 418.949 17.734 417.146 16.3493 414.831C13.4822 410.31 13.4136 404.388 17.7184 400.738C18.8037 399.802 20.0681 399.097 21.4344 398.666C22.8008 398.234 24.2408 398.085 25.6666 398.227C27.0925 398.369 28.4745 398.8 29.7287 399.493C30.9828 400.187 32.0829 401.128 32.962 402.259C34.7084 404.527 35.4902 407.393 35.1377 410.234C34.9256 411.67 37.123 412.289 37.337 410.84C37.8507 407.836 37.281 404.746 35.7295 402.123C34.178 399.499 31.7454 397.512 28.8652 396.514C25.985 395.517 22.8442 395.574 20.0023 396.676C17.1605 397.778 14.8023 399.854 13.3479 402.532C10.7519 407.413 12.1525 413.301 15.4479 417.473C17.1482 419.695 19.4527 421.38 22.0857 422.327C24.7188 423.274 27.5689 423.442 30.2951 422.812C36.2936 421.426 41.2007 416.659 43.5084 411.056C46.0775 404.819 44.9004 397.859 42.3959 391.806C39.6886 385.264 35.6683 379.396 32.489 373.092C29.6103 367.394 27.7784 361.226 27.0807 354.881C25.6842 342.139 28.5761 329.295 35.2988 318.382C42.1511 307.638 52.6099 299.689 64.7965 295.963C76.8948 292.076 89.9558 292.421 101.832 296.943C113.421 301.509 124.612 311.461 124.478 324.826C124.421 330.536 122.301 336.358 117.928 340.166C112.702 344.717 105.425 345.106 98.8549 344.396C92.2434 343.681 85.823 341.75 79.183 341.258C73.4075 340.829 67.1768 341.275 62.02 344.144C59.6185 345.483 57.574 347.38 56.0586 349.674C55.2441 350.9 57.2187 352.044 58.0281 350.825L58.028 350.825Z" fill="#2F2E41"/>
<path id="Vector_15" d="M64.5025 450.413C64.5673 450.561 64.6404 450.704 64.7213 450.844C64.803 450.989 64.8924 451.13 64.9893 451.266L82.7841 476.878L84.1643 478.867L98.6793 499.747L112.683 519.904L118.349 528.071C118.502 528.294 118.673 528.503 118.861 528.696C119.737 529.618 120.916 530.194 122.181 530.32H122.327V495.485L120.704 493.147L102.495 466.942L82.9386 438.796C82.1331 437.639 80.9014 436.848 79.5136 436.597C78.1257 436.345 76.695 436.655 75.5349 437.457L69.5355 441.621L66.3124 443.862C65.2935 444.571 64.5547 445.614 64.2241 446.811C63.8935 448.007 63.992 449.282 64.5025 450.413V450.413Z" fill="#6C63FF"/>
<path id="Vector_16" d="M61.7178 449.788L62.5213 451.404L62.5296 451.412L62.7488 451.842L75.7945 477.739C76.5298 478.943 77.7122 479.807 79.0831 480.142C80.4539 480.477 81.9015 480.255 83.1091 479.525L83.9534 478.997L84.1643 478.867L100.985 468.314C101.585 467.95 102.108 467.471 102.522 466.905C102.937 466.338 103.235 465.695 103.399 465.013C103.564 464.331 103.591 463.623 103.481 462.93C103.37 462.237 103.123 461.572 102.755 460.975L84.278 435.923C82.4669 433.467 79.8658 431.711 76.9119 430.948C73.958 430.185 70.8315 430.463 68.0581 431.734C67.4322 432.016 66.8295 432.347 66.2557 432.724C63.54 434.518 61.5776 437.247 60.7411 440.393C59.9046 443.539 60.2521 446.882 61.7178 449.788V449.788Z" fill="#2F2E41"/>
<path id="Vector_17" d="M157.519 535.978V597.099C157.521 598.509 158.082 599.86 159.079 600.857C160.076 601.854 161.427 602.415 162.837 602.417H174.064C175.474 602.414 176.825 601.853 177.822 600.857C178.819 599.86 179.379 598.509 179.381 597.099V535.978H157.519Z" fill="#6C63FF"/>
<path id="Vector_18" d="M92.0795 532.349V533.949C92.0806 534.794 92.3738 535.613 92.9094 536.266C93.4449 536.92 94.1899 537.369 95.0183 537.537C95.1317 537.553 95.2455 537.577 95.3592 537.585C95.4809 537.594 95.6026 537.602 95.7326 537.602H220.881C222.891 537.601 224.818 536.803 226.239 535.383C227.661 533.963 228.461 532.037 228.463 530.028V479.046C228.461 477.037 227.661 475.11 226.239 473.69C224.818 472.27 222.891 471.472 220.881 471.472H128.278C126.27 471.474 124.345 472.273 122.925 473.693C121.505 475.113 120.706 477.038 120.704 479.046V528.696H95.7326C94.7637 528.696 93.8346 529.081 93.1495 529.766C92.4644 530.451 92.0795 531.38 92.0795 532.349V532.349Z" fill="white"/>
<path id="Vector_19" d="M92.0795 532.349V533.949C92.0806 534.794 92.3738 535.613 92.9094 536.266C93.4449 536.92 94.1899 537.369 95.0183 537.537C95.1317 537.553 95.2455 537.577 95.3592 537.585C95.4809 537.594 95.6026 537.602 95.7326 537.602H220.881C222.891 537.601 224.818 536.803 226.239 535.383C227.661 533.963 228.461 532.037 228.463 530.028V479.046C228.461 477.037 227.661 475.11 226.239 473.69C224.818 472.27 222.891 471.472 220.881 471.472H128.278C126.27 471.474 124.345 472.273 122.925 473.693C121.505 475.113 120.706 477.038 120.704 479.046V528.696H95.7326C94.7637 528.696 93.8346 529.081 93.1495 529.766C92.4644 530.451 92.0795 531.38 92.0795 532.349V532.349ZM93.7031 533.949V532.349C93.7033 531.811 93.9172 531.295 94.2978 530.914C94.6783 530.534 95.1944 530.32 95.7326 530.32H122.327V479.046C122.33 477.468 122.957 475.956 124.073 474.841C125.188 473.725 126.7 473.098 128.278 473.095H220.881C222.46 473.096 223.974 473.723 225.091 474.838C226.208 475.954 226.837 477.467 226.84 479.046V530.028C226.837 531.606 226.208 533.119 225.091 534.235C223.974 535.351 222.46 535.977 220.881 535.978H95.7326C95.1944 535.978 94.6783 535.764 94.2977 535.383C93.9172 535.003 93.7033 534.487 93.7031 533.949Z" fill="#3F3D56"/>
<path id="Vector_20" d="M174.583 510.78C178.031 510.78 180.826 507.985 180.826 504.538C180.826 501.09 178.031 498.295 174.583 498.295C171.135 498.295 168.34 501.09 168.34 504.538C168.34 507.985 171.135 510.78 174.583 510.78Z" fill="#6C63FF"/>
<path id="Vector_21" d="M122.352 529.557H120.728V536.863H122.352V529.557Z" fill="#3F3D56"/>
<path id="Path 2533" d="M350.449 630H-21V631H351L350.449 630Z" fill="#3F3D56"/>
<path id="Vector_22" d="M64.4399 633.71C60.7237 638.719 56.1169 643 50.85 646.34C49.7299 647.05 48.5801 647.72 47.4102 648.34H19.8803C20.2099 647.68 20.5302 647.01 20.8403 646.34C29.3762 628.328 32.0528 608.093 28.4941 588.481C24.9353 568.869 15.3201 550.865 1 537C17.6401 542.14 33.02 552.16 43.0801 566.37C47.9682 573.29 51.4445 581.106 53.3101 589.37C54.9726 572.842 52.3303 556.165 45.6401 540.96C59.1499 551.95 69.6704 567 73.6802 583.94C77.6899 600.89 74.7802 619.7 64.4399 633.71Z" fill="#1AEE88"/>
</g>
<g id="Quiz" filter="url(#filter0_b_303_216)">
<path id="Vector_23" d="M280 1.5L279.999 1.5C278.011 1.50223 276.105 2.29306 274.699 3.699C273.293 5.10493 272.502 7.01115 272.5 8.99944V9L272.5 413L272.5 413.001C272.502 414.989 273.293 416.895 274.699 418.301C276.105 419.707 278.011 420.498 279.999 420.5H280H813C814.989 420.498 816.895 419.707 818.301 418.301C819.707 416.895 820.498 414.989 820.5 413.001V9C820.498 7.01117 819.707 5.105 818.301 3.69909C816.895 2.29318 814.989 1.50232 813.001 1.5L280 1.5ZM813 421.5H280.001C277.747 421.497 275.586 420.601 273.993 419.007C272.399 417.414 271.503 415.253 271.5 413V9.0003C271.503 6.74671 272.399 4.58619 273.993 2.99265C275.586 1.39912 277.747 0.502691 280 0.5H813C815.253 0.50254 817.414 1.39896 819.007 2.99258C820.601 4.58619 821.497 6.74685 821.5 9.00056V413C821.498 415.253 820.601 417.414 819.008 419.008C817.414 420.601 815.253 421.498 813 421.5Z" fill="#E6E6E6" stroke="black"/>
<path id="Vector_24" d="M325.993 93.0073C324.399 91.4138 323.503 89.2533 323.5 86.9997V56.0003C323.503 53.7467 324.399 51.5862 325.993 49.9927C327.586 48.3991 329.747 47.5027 332 47.5H761C763.253 47.5026 765.414 48.399 767.007 49.9926C768.601 51.5862 769.497 53.7468 769.5 56.0006V86.9994C769.497 89.2532 768.601 91.4138 767.007 93.0074C765.414 94.6011 763.253 95.4975 760.999 95.5H332.001C329.747 95.4974 327.586 94.6009 325.993 93.0073ZM332 48.5L331.999 48.5C330.011 48.5022 328.105 49.2931 326.699 50.699C325.293 52.1049 324.502 54.0111 324.5 55.9994V56L324.5 87L324.5 87.0006C324.502 88.9888 325.293 90.8951 326.699 92.301C328.105 93.7069 330.011 94.4978 331.999 94.5H332H761H761.001C762.989 94.4977 764.895 93.7068 766.301 92.3009C767.707 90.895 768.498 88.9888 768.5 87.0006V87V56V55.9994C768.498 54.0112 767.707 52.105 766.301 50.6991C764.895 49.2932 762.989 48.5023 761.001 48.5H761L332 48.5Z" fill="#3F3D56" stroke="black"/>
<path id="Vector_25" d="M325.993 176.007C324.399 174.414 323.503 172.253 323.5 170V139C323.503 136.747 324.399 134.586 325.993 132.993C327.586 131.399 329.747 130.503 332 130.5H502C504.253 130.503 506.414 131.399 508.007 132.993C509.601 134.586 510.497 136.747 510.5 139.001V169.999C510.497 172.253 509.601 174.414 508.007 176.007C506.414 177.601 504.253 178.497 501.999 178.5H332.001C329.747 178.497 327.586 177.601 325.993 176.007ZM332 131.5L331.999 131.5C330.011 131.502 328.105 132.293 326.699 133.699C325.293 135.105 324.502 137.011 324.5 138.999V139L324.5 170L324.5 170.001C324.502 171.989 325.293 173.895 326.699 175.301C328.105 176.707 330.011 177.498 331.999 177.5H332H502H502.001C503.989 177.498 505.895 176.707 507.301 175.301C508.707 173.895 509.498 171.989 509.5 170.001V170V139V138.999C509.498 137.011 508.707 135.105 507.301 133.699C505.895 132.293 503.989 131.502 502.001 131.5H502L332 131.5Z" fill="#3F3D56" stroke="black"/>
<path id="Vector_26" d="M584.993 176.007C583.399 174.414 582.503 172.253 582.5 170V139C582.503 136.747 583.399 134.586 584.993 132.993C586.586 131.399 588.747 130.503 591 130.5H761C763.253 130.503 765.414 131.399 767.007 132.993C768.601 134.586 769.497 136.747 769.5 139.001V169.999C769.497 172.253 768.601 174.414 767.007 176.007C765.414 177.601 763.253 178.497 760.999 178.5H591.001C588.747 178.497 586.586 177.601 584.993 176.007ZM591 131.5L590.999 131.5C589.011 131.502 587.105 132.293 585.699 133.699C584.293 135.105 583.502 137.011 583.5 138.999V139L583.5 170L583.5 170.001C583.502 171.989 584.293 173.895 585.699 175.301C587.105 176.707 589.011 177.498 590.999 177.5H591H761H761.001C762.989 177.498 764.895 176.707 766.301 175.301C767.707 173.895 768.498 171.989 768.5 170.001V170V139V138.999C768.498 137.011 767.707 135.105 766.301 133.699C764.895 132.293 762.989 131.502 761.001 131.5H761L591 131.5Z" fill="#3F3D56" stroke="black"/>
<path id="Vector_27" d="M641.846 372.154C640.346 370.654 639.503 368.621 639.5 366.5V355.5C639.503 353.379 640.346 351.346 641.846 349.846C643.346 348.346 645.379 347.503 647.5 347.5H761.5C763.621 347.503 765.654 348.346 767.154 349.846C768.654 351.346 769.497 353.38 769.5 355.501V366.499C769.497 368.621 768.654 370.654 767.154 372.154C765.654 373.654 763.621 374.498 761.499 374.5H647.501C645.379 374.498 643.346 373.654 641.846 372.154Z" fill="#E6E6E6" stroke="black"/>
<path id="Vector_28" d="M357.5 223V222.999C357.498 221.276 356.813 219.624 355.594 218.406C354.376 217.187 352.724 216.502 351.001 216.5L351 217V216.5C349.714 216.5 348.458 216.881 347.389 217.595C346.32 218.31 345.487 219.325 344.995 220.513C344.503 221.7 344.374 223.007 344.625 224.268C344.876 225.529 345.495 226.687 346.404 227.596C347.313 228.505 348.471 229.124 349.732 229.375C350.993 229.626 352.3 229.497 353.487 229.005C354.675 228.513 355.69 227.68 356.405 226.611C357.119 225.542 357.5 224.286 357.5 223ZM350.999 230.5C349.516 230.5 348.066 230.06 346.833 229.236C345.6 228.412 344.639 227.241 344.071 225.87C343.503 224.5 343.355 222.992 343.644 221.537C343.934 220.082 344.648 218.746 345.697 217.697C346.746 216.648 348.082 215.933 349.537 215.644C350.992 215.355 352.5 215.503 353.87 216.071C355.241 216.639 356.412 217.6 357.236 218.833C358.06 220.066 358.5 221.516 358.5 222.999C358.498 224.988 357.707 226.894 356.301 228.301C354.894 229.707 352.988 230.498 350.999 230.5Z" fill="#E6E6E6" stroke="black"/>
<path id="Vector_29" d="M357.5 249V248.999C357.498 247.276 356.813 245.624 355.594 244.406C354.376 243.187 352.724 242.502 351.001 242.5L351 243V242.5C349.714 242.5 348.458 242.881 347.389 243.595C346.32 244.31 345.487 245.325 344.995 246.513C344.503 247.7 344.374 249.007 344.625 250.268C344.876 251.529 345.495 252.687 346.404 253.596C347.313 254.505 348.471 255.124 349.732 255.375C350.993 255.626 352.3 255.497 353.487 255.005C354.675 254.513 355.69 253.68 356.405 252.611C357.119 251.542 357.5 250.286 357.5 249ZM350.999 256.5C349.516 256.5 348.066 256.06 346.833 255.236C345.6 254.412 344.639 253.241 344.071 251.87C343.503 250.5 343.355 248.992 343.644 247.537C343.934 246.082 344.648 244.746 345.697 243.697C346.746 242.648 348.082 241.933 349.537 241.644C350.992 241.355 352.5 241.503 353.87 242.071C355.241 242.639 356.412 243.6 357.236 244.833C358.06 246.066 358.5 247.516 358.5 248.999C358.498 250.988 357.707 252.894 356.301 254.301C354.894 255.707 352.988 256.498 350.999 256.5Z" fill="#E6E6E6" stroke="black"/>
<path id="Vector_30" d="M357.5 275V274.999C357.498 273.276 356.813 271.624 355.594 270.406C354.376 269.187 352.724 268.502 351.001 268.5L351 269V268.5C349.714 268.5 348.458 268.881 347.389 269.595C346.32 270.31 345.487 271.325 344.995 272.513C344.503 273.7 344.374 275.007 344.625 276.268C344.876 277.529 345.495 278.687 346.404 279.596C347.313 280.505 348.471 281.124 349.732 281.375C350.993 281.626 352.3 281.497 353.487 281.005C354.675 280.513 355.69 279.68 356.405 278.611C357.119 277.542 357.5 276.286 357.5 275ZM350.999 282.5C349.516 282.5 348.066 282.06 346.833 281.236C345.6 280.412 344.639 279.241 344.071 277.87C343.503 276.5 343.355 274.992 343.644 273.537C343.934 272.082 344.648 270.746 345.697 269.697C346.746 268.648 348.082 267.933 349.537 267.644C350.992 267.355 352.5 267.503 353.87 268.071C355.241 268.639 356.412 269.6 357.236 270.833C358.06 272.066 358.5 273.516 358.5 274.999C358.498 276.988 357.707 278.894 356.301 280.301C354.894 281.707 352.988 282.498 350.999 282.5Z" fill="#3F3D56" stroke="black"/>
<path id="Vector_31" d="M385.757 218.757C386.883 217.632 388.409 217 390 217H483C484.591 217 486.117 217.632 487.243 218.757C488.368 219.883 489 221.409 489 223C489 224.591 488.368 226.117 487.243 227.243C486.117 228.368 484.591 229 483 229H390C388.409 229 386.883 228.368 385.757 227.243C384.632 226.117 384 224.591 384 223C384 221.409 384.632 219.883 385.757 218.757Z" fill="#E6E6E6" stroke="black"/>
<path id="Vector_32" d="M385.757 244.757C386.883 243.632 388.409 243 390 243H483C484.591 243 486.117 243.632 487.243 244.757C488.368 245.883 489 247.409 489 249C489 250.591 488.368 252.117 487.243 253.243C486.117 254.368 484.591 255 483 255H390C388.409 255 386.883 254.368 385.757 253.243C384.632 252.117 384 250.591 384 249C384 247.409 384.632 245.883 385.757 244.757Z" fill="#E6E6E6" stroke="black"/>
<path id="Vector_33" d="M385.757 270.757C386.883 269.632 388.409 269 390 269H483C484.591 269 486.117 269.632 487.243 270.757C488.368 271.883 489 273.409 489 275C489 276.591 488.368 278.117 487.243 279.243C486.117 280.368 484.591 281 483 281H390C388.409 281 386.883 280.368 385.757 279.243C384.632 278.117 384 276.591 384 275C384 273.409 384.632 271.883 385.757 270.757Z" fill="#E6E6E6" stroke="black"/>
<path id="Vector_34" d="M617 223V222.999C616.998 221.276 616.313 219.624 615.094 218.406C613.876 217.187 612.224 216.502 610.501 216.5L610.5 217V216.5C609.214 216.5 607.958 216.881 606.889 217.595C605.82 218.31 604.987 219.325 604.495 220.513C604.003 221.7 603.874 223.007 604.125 224.268C604.376 225.529 604.995 226.687 605.904 227.596C606.813 228.505 607.971 229.124 609.232 229.375C610.493 229.626 611.8 229.497 612.987 229.005C614.175 228.513 615.19 227.68 615.905 226.611C616.619 225.542 617 224.286 617 223ZM610.499 230.5C609.016 230.5 607.566 230.06 606.333 229.236C605.1 228.412 604.139 227.241 603.571 225.87C603.003 224.5 602.855 222.992 603.144 221.537C603.433 220.082 604.148 218.746 605.197 217.697C606.246 216.648 607.582 215.933 609.037 215.644C610.492 215.355 612 215.503 613.37 216.071C614.741 216.639 615.912 217.6 616.736 218.833C617.56 220.066 618 221.516 618 222.999C617.998 224.988 617.207 226.894 615.801 228.301C614.394 229.707 612.488 230.498 610.499 230.5Z" fill="#E6E6E6" stroke="black"/>
<path id="Vector_35" d="M617 249V248.999C616.998 247.276 616.313 245.624 615.094 244.406C613.876 243.187 612.224 242.502 610.501 242.5L610.5 243V242.5C609.214 242.5 607.958 242.881 606.889 243.595C605.82 244.31 604.987 245.325 604.495 246.513C604.003 247.7 603.874 249.007 604.125 250.268C604.376 251.529 604.995 252.687 605.904 253.596C606.813 254.505 607.971 255.124 609.232 255.375C610.493 255.626 611.8 255.497 612.987 255.005C614.175 254.513 615.19 253.68 615.905 252.611C616.619 251.542 617 250.286 617 249ZM610.499 256.5C609.016 256.5 607.566 256.06 606.333 255.236C605.1 254.412 604.139 253.241 603.571 251.87C603.003 250.5 602.855 248.992 603.144 247.537C603.433 246.082 604.148 244.746 605.197 243.697C606.246 242.648 607.582 241.933 609.037 241.644C610.492 241.355 612 241.503 613.37 242.071C614.741 242.639 615.912 243.6 616.736 244.833C617.56 246.066 618 247.516 618 248.999C617.998 250.988 617.207 252.894 615.801 254.301C614.394 255.707 612.488 256.498 610.499 256.5Z" fill="#3F3D56" stroke="black"/>
<path id="Vector_36" d="M617 275V274.999C616.998 273.276 616.313 271.624 615.094 270.406C613.876 269.187 612.224 268.502 610.501 268.5L610.5 269V268.5C609.214 268.5 607.958 268.881 606.889 269.595C605.82 270.31 604.987 271.325 604.495 272.513C604.003 273.7 603.874 275.007 604.125 276.268C604.376 277.529 604.995 278.687 605.904 279.596C606.813 280.505 607.971 281.124 609.232 281.375C610.493 281.626 611.8 281.497 612.987 281.005C614.175 280.513 615.19 279.68 615.905 278.611C616.619 277.542 617 276.286 617 275ZM610.499 282.5C609.016 282.5 607.566 282.06 606.333 281.236C605.1 280.412 604.139 279.241 603.571 277.87C603.003 276.5 602.855 274.992 603.144 273.537C603.433 272.082 604.148 270.746 605.197 269.697C606.246 268.648 607.582 267.933 609.037 267.644C610.492 267.355 612 267.503 613.37 268.071C614.741 268.639 615.912 269.6 616.736 270.833C617.56 272.066 618 273.516 618 274.999C617.998 276.988 617.207 278.894 615.801 280.301C614.394 281.707 612.488 282.498 610.499 282.5Z" fill="#E6E6E6" stroke="black"/>
<path id="Vector_37" d="M610.501 294.5H610.5C609.214 294.5 607.958 294.881 606.889 295.595C605.82 296.31 604.987 297.325 604.495 298.513C604.003 299.7 603.874 301.007 604.125 302.268C604.376 303.529 604.995 304.687 605.904 305.596C606.813 306.505 607.971 307.124 609.232 307.375C610.493 307.626 611.8 307.497 612.987 307.005C614.175 306.513 615.19 305.68 615.905 304.611C616.619 303.542 617 302.286 617 301V300.999C616.998 299.276 616.313 297.624 615.094 296.406C613.876 295.187 612.224 294.502 610.501 294.5ZM610.499 308.5C609.016 308.5 607.566 308.06 606.333 307.236C605.1 306.412 604.139 305.241 603.571 303.87C603.003 302.5 602.855 300.992 603.144 299.537C603.433 298.082 604.148 296.746 605.197 295.697C606.246 294.648 607.582 293.933 609.037 293.644C610.492 293.355 612 293.503 613.37 294.071C614.741 294.639 615.912 295.6 616.736 296.833C617.56 298.066 618 299.516 618 300.999C617.998 302.988 617.207 304.894 615.801 306.301C614.394 307.707 612.488 308.498 610.499 308.5Z" fill="#E6E6E6" stroke="black"/>
<path id="Vector_38" d="M644.257 218.757C645.383 217.632 646.909 217 648.5 217H741.5C743.091 217 744.617 217.632 745.743 218.757C746.868 219.883 747.5 221.409 747.5 223C747.5 224.591 746.868 226.117 745.743 227.243C744.617 228.368 743.091 229 741.5 229H648.5C646.909 229 645.383 228.368 644.257 227.243C643.132 226.117 642.5 224.591 642.5 223C642.5 221.409 643.132 219.883 644.257 218.757Z" fill="#E6E6E6" stroke="black"/>
<path id="Vector_39" d="M644.257 244.757C645.383 243.632 646.909 243 648.5 243H741.5C743.091 243 744.617 243.632 745.743 244.757C746.868 245.883 747.5 247.409 747.5 249C747.5 250.591 746.868 252.117 745.743 253.243C744.617 254.368 743.091 255 741.5 255H648.5C646.909 255 645.383 254.368 644.257 253.243C643.132 252.117 642.5 250.591 642.5 249C642.5 247.409 643.132 245.883 644.257 244.757Z" fill="#E6E6E6" stroke="black"/>
<path id="Vector_40" d="M644.257 270.757C645.383 269.632 646.909 269 648.5 269H741.5C743.091 269 744.617 269.632 745.743 270.757C746.868 271.883 747.5 273.409 747.5 275C747.5 276.591 746.868 278.117 745.743 279.243C744.617 280.368 743.091 281 741.5 281H648.5C646.909 281 645.383 280.368 644.257 279.243C643.132 278.117 642.5 276.591 642.5 275C642.5 273.409 643.132 271.883 644.257 270.757Z" fill="#E6E6E6" stroke="black"/>
<path id="Vector_41" d="M644.257 296.757C645.383 295.632 646.909 295 648.5 295H741.5C743.091 295 744.617 295.632 745.743 296.757C746.868 297.883 747.5 299.409 747.5 301C747.5 302.591 746.868 304.117 745.743 305.243C744.617 306.368 743.091 307 741.5 307H648.5C646.909 307 645.383 306.368 644.257 305.243C643.132 304.117 642.5 302.591 642.5 301C642.5 299.409 643.132 297.883 644.257 296.757Z" fill="#E6E6E6" stroke="black"/>
<path id="Vector_42" d="M346.884 150.257C348.01 149.132 349.536 148.5 351.127 148.5H462.127C463.718 148.5 465.244 149.132 466.37 150.257C467.495 151.383 468.127 152.909 468.127 154.5C468.127 156.091 467.495 157.617 466.37 158.743C465.244 159.868 463.718 160.5 462.127 160.5H351.127C349.536 160.5 348.01 159.868 346.884 158.743C345.759 157.617 345.127 156.091 345.127 154.5C345.127 152.909 345.759 151.383 346.884 150.257Z" fill="#E6E6E6" stroke="black"/>
<path id="Vector_43" d="M346.884 67.2574C348.01 66.1321 349.536 65.5 351.127 65.5H462.127C463.718 65.5 465.244 66.1321 466.37 67.2574C467.495 68.3826 468.127 69.9087 468.127 71.5C468.127 73.0913 467.495 74.6174 466.37 75.7427C465.244 76.8679 463.718 77.5 462.127 77.5H351.127C349.536 77.5 348.01 76.8679 346.884 75.7427C345.759 74.6174 345.127 73.0913 345.127 71.5C345.127 69.9087 345.759 68.3826 346.884 67.2574Z" fill="#6C63FF" stroke="black"/>
<path id="Vector_44" d="M480.383 150.824L480.383 150.824H488.871H488.871L488.871 150.824L484.627 158.175L484.627 158.176L484.627 158.176L484.627 158.176L484.627 158.175L480.383 150.824Z" fill="#6C63FF" stroke="black"/>
<path id="Vector_45" d="M605.884 150.257C607.01 149.132 608.536 148.5 610.127 148.5H721.127C722.718 148.5 724.244 149.132 725.37 150.257C726.495 151.383 727.127 152.909 727.127 154.5C727.127 156.091 726.495 157.617 725.37 158.743C724.244 159.868 722.718 160.5 721.127 160.5H610.127C608.536 160.5 607.01 159.868 605.884 158.743C604.759 157.617 604.127 156.091 604.127 154.5C604.127 152.909 604.759 151.383 605.884 150.257Z" fill="#E6E6E6" stroke="black"/>
<g id="Vector_46">
<mask id="path-47-inside-1_303_216" fill="white">
<path d="M739.383 150.324C739.295 150.324 739.209 150.348 739.133 150.391C739.057 150.435 738.994 150.498 738.95 150.574C738.906 150.65 738.883 150.737 738.883 150.824C738.883 150.912 738.906 150.998 738.95 151.074L743.194 158.426C743.238 158.502 743.301 158.565 743.377 158.609C743.453 158.652 743.539 158.676 743.627 158.676C743.715 158.676 743.801 158.652 743.877 158.609C743.953 158.565 744.016 158.502 744.06 158.426L748.304 151.074C748.348 150.998 748.371 150.912 748.371 150.824C748.371 150.737 748.348 150.65 748.304 150.574C748.26 150.498 748.197 150.435 748.121 150.391C748.045 150.348 747.959 150.324 747.871 150.324H739.383Z"/>
</mask>
<path d="M739.383 150.324C739.295 150.324 739.209 150.348 739.133 150.391C739.057 150.435 738.994 150.498 738.95 150.574C738.906 150.65 738.883 150.737 738.883 150.824C738.883 150.912 738.906 150.998 738.95 151.074L743.194 158.426C743.238 158.502 743.301 158.565 743.377 158.609C743.453 158.652 743.539 158.676 743.627 158.676C743.715 158.676 743.801 158.652 743.877 158.609C743.953 158.565 744.016 158.502 744.06 158.426L748.304 151.074C748.348 150.998 748.371 150.912 748.371 150.824C748.371 150.737 748.348 150.65 748.304 150.574C748.26 150.498 748.197 150.435 748.121 150.391C748.045 150.348 747.959 150.324 747.871 150.324H739.383Z" fill="#6C63FF"/>
<path d="M739.383 150.324L739.383 151.324H739.383V150.324ZM738.95 151.074L739.816 150.574L739.816 150.574L738.95 151.074ZM743.194 158.426L742.328 158.926L742.328 158.926L743.194 158.426ZM743.627 158.676L743.627 159.676L743.627 158.676ZM744.06 158.426L744.926 158.926L744.926 158.926L744.06 158.426ZM748.304 151.074L747.438 150.574L747.438 150.574L748.304 151.074ZM748.371 150.824L749.371 150.824L748.371 150.824ZM747.871 150.324L747.871 151.324L747.871 151.324L747.871 150.324ZM739.383 149.324C739.12 149.324 738.861 149.394 738.633 149.525L739.633 151.258C739.557 151.301 739.471 151.324 739.383 151.324L739.383 149.324ZM738.633 149.525C738.405 149.657 738.216 149.846 738.084 150.074L739.816 151.075C739.772 151.151 739.708 151.214 739.633 151.258L738.633 149.525ZM738.084 150.074C737.952 150.303 737.883 150.562 737.883 150.824L739.883 150.825C739.883 150.912 739.86 150.998 739.816 151.075L738.084 150.074ZM737.883 150.824C737.883 151.088 737.952 151.346 738.084 151.574L739.816 150.574C739.86 150.651 739.883 150.737 739.883 150.825L737.883 150.824ZM738.084 151.574L742.328 158.926L744.06 157.926L739.816 150.574L738.084 151.574ZM742.328 158.926C742.46 159.154 742.649 159.343 742.877 159.475L743.877 157.742C743.953 157.786 744.016 157.85 744.06 157.925L742.328 158.926ZM742.877 159.475C743.105 159.606 743.364 159.676 743.627 159.676L743.627 157.676C743.715 157.676 743.801 157.699 743.877 157.742L742.877 159.475ZM743.627 159.676C743.89 159.676 744.149 159.606 744.377 159.475L743.377 157.742C743.453 157.699 743.539 157.676 743.627 157.676L743.627 159.676ZM744.377 159.475C744.605 159.343 744.794 159.154 744.926 158.926L743.194 157.925C743.238 157.85 743.301 157.786 743.377 157.742L744.377 159.475ZM744.926 158.926L749.17 151.574L747.438 150.574L743.194 157.926L744.926 158.926ZM749.17 151.574C749.302 151.347 749.371 151.088 749.371 150.824L747.371 150.825C747.371 150.736 747.394 150.65 747.438 150.574L749.17 151.574ZM749.371 150.824C749.371 150.561 749.302 150.302 749.17 150.074L747.438 151.075C747.394 150.999 747.371 150.912 747.371 150.825L749.371 150.824ZM749.17 150.074C749.039 149.846 748.849 149.657 748.621 149.525L747.621 151.258C747.545 151.214 747.482 151.15 747.438 151.075L749.17 150.074ZM748.621 149.525C748.393 149.394 748.134 149.324 747.871 149.324L747.871 151.324C747.784 151.324 747.697 151.301 747.621 151.258L748.621 149.525ZM747.871 149.324H739.383V151.324H747.871V149.324Z" fill="black" mask="url(#path-47-inside-1_303_216)"/>
</g>
<path id="Vector_47" d="M614 249C614 250.933 612.433 252.5 610.5 252.5C608.567 252.5 607 250.933 607 249C607 247.067 608.567 245.5 610.5 245.5C612.433 245.5 614 247.067 614 249Z" fill="#6C63FF" stroke="black"/>
<path id="Vector_48" d="M354.5 275C354.5 276.933 352.933 278.5 351 278.5C349.067 278.5 347.5 276.933 347.5 275C347.5 273.067 349.067 271.5 351 271.5C352.933 271.5 354.5 273.067 354.5 275Z" fill="#6C63FF" stroke="black"/>
</g>
<g id="Bulb">
<path id="Vector_49" d="M125.991 194.694C125.991 205.951 121.838 215.561 113.934 222.713C108.325 227.791 99.6857 234.908 99.6857 242.432V248.658H73.3803V242.432C73.3803 234.829 64.7073 227.697 59.1324 222.713C51.4069 215.812 47.075 205.549 47.075 194.694V194.464C47.1089 184.557 51.2977 175.067 58.7202 168.084C66.1426 161.1 76.1907 157.194 86.6545 157.224C97.1184 157.255 107.141 161.219 114.518 168.246C121.895 175.273 126.022 184.787 125.991 194.694Z" fill="#E9FF63"/>
<path id="Path 2546" d="M99.6854 249.532C99.4406 249.532 99.2058 249.44 99.0327 249.276C98.8596 249.112 98.7624 248.89 98.7624 248.658V242.431C98.7624 235.112 106.386 228.279 111.953 223.29C112.414 222.876 112.864 222.474 113.295 222.083C120.996 215.112 125.066 205.642 125.066 194.695C125.066 174.236 108.141 158.21 86.5336 158.21H86.4247C76.2562 158.22 66.5058 162.043 59.3055 168.841C52.1052 175.64 48.0407 184.861 48.0007 194.489V194.693C48.0007 205.414 52.2892 215.395 59.7673 222.079C60.1461 222.418 60.5396 222.767 60.9435 223.125C66.5821 228.123 74.3045 234.969 74.3045 242.431V248.658C74.3045 248.89 74.2073 249.112 74.0342 249.276C73.8611 249.44 73.6263 249.532 73.3815 249.532C73.1367 249.532 72.9019 249.44 72.7289 249.276C72.5558 249.112 72.4585 248.89 72.4585 248.658V242.431C72.4585 235.727 65.0745 229.18 59.6818 224.399C59.276 224.039 58.8821 223.689 58.5 223.349C50.6546 216.336 46.1547 205.892 46.1547 194.694V194.484C46.2162 173.496 64.2715 156.461 86.4219 156.461H86.5361C97.1891 156.408 107.428 160.365 115 167.46C122.572 174.556 126.857 184.209 126.912 194.296C126.913 194.429 126.913 194.562 126.912 194.695C126.912 206.13 122.645 216.038 114.571 223.346C114.138 223.738 113.686 224.143 113.222 224.559C107.899 229.33 100.607 235.864 100.607 242.431V248.658C100.607 248.89 100.51 249.112 100.337 249.276C100.164 249.44 99.9292 249.532 99.6844 249.532H99.6854Z" fill="#3F3D56"/>
<path id="Path 2547" d="M95.3018 260.746H77.7649C77.3569 260.746 76.9656 260.592 76.6771 260.319C76.3886 260.046 76.2266 259.676 76.2266 259.289C76.2266 258.903 76.3886 258.532 76.6771 258.259C76.9656 257.986 77.3569 257.833 77.7649 257.833H95.3018C95.7098 257.833 96.1011 257.986 96.3896 258.259C96.6781 258.532 96.8401 258.903 96.8401 259.289C96.8401 259.676 96.6781 260.046 96.3896 260.319C96.1011 260.592 95.7098 260.746 95.3018 260.746V260.746Z" fill="#6C63FF"/>
<path id="Vector_50" d="M88.419 270.505H84.6449C83.3339 270.506 82.0475 270.168 80.9239 269.529C80.7574 269.437 80.6283 269.294 80.5575 269.125C80.4868 268.955 80.4784 268.767 80.5337 268.592C80.5843 268.413 80.6964 268.254 80.8523 268.141C81.0083 268.028 81.1994 267.968 81.3957 267.968H91.6683C91.8646 267.968 92.0557 268.028 92.2116 268.141C92.3676 268.254 92.4796 268.413 92.5303 268.592C92.5856 268.767 92.5772 268.955 92.5064 269.125C92.4356 269.294 92.3066 269.437 92.14 269.529C91.0164 270.168 89.73 270.506 88.419 270.505V270.505Z" fill="#3F3D56"/>
<path id="Vector_51" d="M95.3048 265.347L77.6638 265.345L77.6092 265.234C77.5571 265.03 77.555 264.817 77.603 264.613C77.6509 264.408 77.7478 264.216 77.886 264.052C78.0262 263.884 78.2049 263.748 78.4086 263.654C78.6124 263.561 78.8359 263.513 79.0622 263.513H94.0017C94.2281 263.513 94.4516 263.561 94.6554 263.654C94.8591 263.748 95.0379 263.884 95.178 264.052C95.3151 264.214 95.4115 264.403 95.4601 264.605C95.5086 264.807 95.508 265.017 95.4582 265.219L95.4305 265.332L95.3048 265.347Z" fill="#3F3D56"/>
<path id="Path 2548" d="M45.7369 160.36C45.365 160.361 45.0057 160.233 44.7259 160.001L31.5151 149.082C31.2124 148.827 31.0284 148.469 31.003 148.086C30.9776 147.703 31.1129 147.326 31.3795 147.037C31.646 146.748 32.0223 146.57 32.4265 146.542C32.8307 146.514 33.2303 146.639 33.5383 146.888L46.7491 157.807C46.9851 158.002 47.1526 158.26 47.2292 158.548C47.3058 158.835 47.2879 159.138 47.1778 159.416C47.0678 159.694 46.8709 159.933 46.6134 160.102C46.3559 160.27 46.0501 160.361 45.7369 160.361V160.36Z" fill="#F4F906"/>
<path id="Path 2549" d="M125.139 160.36C124.825 160.361 124.52 160.27 124.262 160.101C124.005 159.932 123.808 159.693 123.698 159.416C123.588 159.138 123.57 158.835 123.646 158.548C123.723 158.26 123.89 158.001 124.126 157.806L137.337 146.887C137.645 146.637 138.044 146.513 138.449 146.541C138.853 146.569 139.229 146.747 139.496 147.036C139.762 147.325 139.898 147.702 139.872 148.085C139.847 148.468 139.663 148.826 139.36 149.081L126.149 160C125.87 160.232 125.511 160.36 125.139 160.36Z" fill="#F2F70A"/>
<path id="Path 2550" d="M99.6854 255.576H73.38C72.972 255.576 72.5807 255.423 72.2922 255.15C72.0037 254.877 71.8417 254.506 71.8417 254.12C71.8417 253.734 72.0037 253.363 72.2922 253.09C72.5807 252.817 72.972 252.663 73.38 252.663H99.6854C100.093 252.663 100.485 252.817 100.773 253.09C101.062 253.363 101.224 253.734 101.224 254.12C101.224 254.506 101.062 254.877 100.773 255.15C100.485 255.423 100.093 255.576 99.6854 255.576V255.576Z" fill="#6C63FF"/>
<path id="Vector_52" d="M85.8869 217.525L80.4166 248.658H77.2938L82.8503 217.047C82.9172 216.666 83.1413 216.325 83.4734 216.1C83.8054 215.876 84.2182 215.785 84.6209 215.848C85.0236 215.912 85.3832 216.124 85.6206 216.438C85.858 216.753 85.9538 217.143 85.8869 217.525V217.525Z" fill="#E6E6E6"/>
<path id="Vector_53" d="M96.3999 248.658H93.2771L87.8068 217.525C87.7399 217.143 87.8357 216.753 88.0731 216.438C88.3106 216.124 88.6702 215.912 89.0729 215.848C89.4756 215.785 89.8883 215.876 90.2204 216.1C90.5525 216.325 90.7766 216.666 90.8435 217.047L96.3999 248.658Z" fill="#E6E6E6"/>
<path id="Path 2551" d="M76.5353 216.485C76.5353 216.098 76.6973 215.728 76.9858 215.455C77.2743 215.182 77.6656 215.028 78.0736 215.028H94.993C95.401 215.028 95.7923 215.182 96.0808 215.455C96.3693 215.728 96.5314 216.098 96.5314 216.485C96.5314 216.871 96.3693 217.242 96.0808 217.515C95.7923 217.788 95.401 217.941 94.993 217.941H78.0736C77.6656 217.941 77.2743 217.788 76.9858 217.515C76.6973 217.242 76.5353 216.871 76.5353 216.485V216.485Z" fill="#E6E6E6"/>
<path id="Path 2553" d="M86.5333 145.821C86.1253 145.821 85.7341 145.667 85.4456 145.394C85.1571 145.121 84.995 144.75 84.995 144.364V119.457C84.995 119.07 85.1571 118.7 85.4456 118.427C85.7341 118.153 86.1253 118 86.5333 118C86.9413 118 87.3326 118.153 87.6211 118.427C87.9096 118.7 88.0716 119.07 88.0716 119.457V144.364C88.0716 144.75 87.9096 145.121 87.6211 145.394C87.3326 145.667 86.9413 145.821 86.5333 145.821V145.821Z" fill="#D5F417"/>
</g>
</g>
<defs>
<filter id="filter0_b_303_216" x="267" y="-4" width="559" height="430" filterUnits="userSpaceOnUse" color-interpolation-filters="sRGB">
<feFlood flood-opacity="0" result="BackgroundImageFix"/>
<feGaussianBlur in="BackgroundImage" stdDeviation="2"/>
<feComposite in2="SourceAlpha" operator="in" result="effect1_backgroundBlur_303_216"/>
<feBlend mode="normal" in="SourceGraphic" in2="effect1_backgroundBlur_303_216" result="shape"/>
</filter>
</defs>
</svg>
