<svg width="600" height="521" viewBox="0 0 600 521" fill="none" xmlns="http://www.w3.org/2000/svg">
<g id="Home_img" clip-path="url(#clip0_202_2)">
<g id="g8">
<path id="Vector" fill-rule="evenodd" clip-rule="evenodd" d="M124.215 418.581C72.9725 364.288 -4.83141 301.863 15.0766 232.793C35.2452 162.818 141.22 183.244 202.55 146.801C252.029 117.4 274.774 49.9157 332.859 43.9621C404.901 36.5779 493.664 49.6961 535.769 112.646C577.418 174.915 541.858 254.25 519.153 322.486C501.914 374.297 467.03 412.802 424.886 445.894C381.205 480.194 335.011 516.797 278.259 511.642C217.692 506.14 167.372 464.307 124.215 418.581Z" fill="url(#paint0_linear_202_2)" fill-opacity="0.91"/>
<g id="g10">
<path id="path14" d="M214.507 288.194L133.282 247.491L198.065 215.034L279.264 255.752L214.507 288.194Z" fill="#19111B"/>
<path id="path16" d="M140.8 242.142L195.681 214.607L275.669 254.725L220.793 282.233L140.8 242.142Z" fill="#88D8E2"/>
<path id="path18" d="M219.081 284.042L220.105 281.364L140.108 241.295L138.528 243.648L219.081 284.042Z" fill="#60A0AC"/>
<path id="path20" d="M136.815 244.13L138.737 243.169L218.731 283.262L217.849 284.572L136.815 244.13Z" fill="#88D8E2"/>
<path id="path22" d="M210.589 273.309V269.724L219.101 273.973L219.449 276.472L219.101 277.582L210.589 273.309Z" fill="#C98C3B"/>
<path id="path24" d="M210.589 269.724L209.273 266.792L217.775 271.074L218.757 272.541L219.101 273.973L210.589 269.724Z" fill="#D2A53A"/>
<path id="path26" d="M208.848 278.308L210.589 273.309L219.101 277.582L218.78 279.722L217.356 282.572L208.848 278.308Z" fill="#D2A53A"/>
<path id="path28" d="M218.731 280.683L219.896 277.335L219.867 273.433L218.731 271.236L217.356 271.096L219.101 273.973V277.582L217.356 282.572L218.731 280.683Z" fill="#F6EC5A"/>
<path id="path30" d="M219.867 273.433L218.731 271.236L220.105 269.724L272.54 243.424L271.189 247.271V252.03L272.54 254.905L220.105 281.182L218.731 280.683L219.896 277.335L219.867 273.433Z" fill="#D2D2D0"/>
<path id="path32" d="M219.752 271.739L220.765 269.084L182.279 244.576L140.8 228.991L139.211 231.366L219.752 271.739Z" fill="#60A0AC"/>
<path id="path34" d="M140.8 228.991L195.681 201.48L275.669 241.591L220.765 269.084L140.8 228.991Z" fill="#C4ECF6"/>
<path id="path36" d="M275.669 256.391L220.793 283.902L220.105 283.565L219.421 284.571L216.507 286.04L213.248 283.262V277.279L216.507 271.236L219.421 269.767L220.105 270.113L220.765 269.084L275.669 241.591V243.242L221.483 270.434L220.105 271.919L218.731 271.779L217.337 272.488L214.925 276.974V281.89L217.337 283.947L218.731 283.262L220.105 281.364L221.483 281.89L275.669 254.725V256.391Z" fill="#60A0AC"/>
<path id="path38" d="M136.511 231.143L139.435 229.674L219.421 269.767L216.507 271.236L178.112 254.824L136.511 231.143Z" fill="#C4ECF6"/>
<path id="path40" d="M133.263 237.158L136.511 231.144L216.507 271.236L213.248 277.279L176.684 261.931L133.263 237.158Z" fill="#88D8E2"/>
<path id="path42" d="M136.481 245.963L133.282 243.169L179.04 262.922L213.248 283.262L216.507 286.04L136.481 245.963Z" fill="#60A0AC"/>
<path id="path44" d="M133.282 243.169L133.263 237.158L213.248 277.279V283.262L133.282 243.169Z" fill="#71BAC4"/>
<path id="path46" d="M140.733 226.145L195.605 198.634L275.572 238.756L220.727 266.266L140.733 226.145Z" fill="#D56667"/>
<path id="path48" d="M219.004 268.073L220.047 265.418L140.061 225.3L138.461 227.674L219.004 268.073Z" fill="#AF4444"/>
<path id="path50" d="M136.749 228.144L138.669 227.172L218.664 267.293L217.804 268.581L136.749 228.144Z" fill="#D56667"/>
<path id="path52" d="M210.541 257.364L210.523 253.756L219.052 258.031L219.383 260.501L219.052 261.615L210.541 257.364Z" fill="#C98C3B"/>
<path id="path54" d="M210.523 253.756L209.196 250.821L217.708 255.086L218.703 256.601L219.052 258.031L210.523 253.756Z" fill="#D2A53A"/>
<path id="path56" d="M208.783 262.336L210.541 257.364L219.052 261.615L218.703 263.75L217.289 266.61L208.783 262.336Z" fill="#D2A53A"/>
<path id="path58" d="M218.664 264.711L219.819 261.366V257.463L218.664 255.25L217.289 255.128L219.052 258.031V261.615L217.289 266.61L218.664 264.711Z" fill="#F6EC5A"/>
<path id="path60" d="M219.819 257.463L218.664 255.25L220.047 253.756L272.487 227.454L271.121 231.3L271.14 236.059L272.487 238.935L220.047 265.238L218.664 264.711L219.819 261.366V257.463Z" fill="#D2D2D0"/>
<path id="path62" d="M219.708 255.793L220.727 253.117L182.203 228.604L140.733 213.018L139.152 215.413L219.708 255.793Z" fill="#AF4444"/>
<path id="path64" d="M140.733 213.019L195.605 185.51L275.572 225.579L220.727 253.117L140.733 213.019Z" fill="#F68B8F"/>
<path id="path66" d="M163.741 218.356V215.039L161.397 213.86L196.839 196.086L199.183 197.262H205.763L208.161 196.063L222.497 203.251L220.089 204.456V207.759L222.433 208.922L186.992 226.701L184.649 225.522H178.064L175.72 226.701L161.397 219.496L163.741 218.356Z" fill="#D56667"/>
<path id="path68" d="M275.572 240.409L220.727 267.931L220.047 267.594L219.355 268.618L216.429 270.068L213.193 267.293V261.292L216.429 255.25L219.355 253.795L220.028 254.117L220.727 253.117L275.572 225.579V227.27L221.419 254.446L220.047 255.948L218.664 255.81L217.263 256.517L214.859 261.029V265.902L217.263 267.974L218.664 267.293L220.047 265.418L221.419 265.902L275.572 238.756V240.409Z" fill="#AF4444"/>
<path id="path70" d="M136.444 215.149L139.359 213.703L219.355 253.795L216.429 255.25L178.056 238.839L136.444 215.149Z" fill="#F68B8F"/>
<path id="path72" d="M133.188 221.192L136.444 215.149L216.429 255.25L213.193 261.292L176.617 245.963L133.188 221.192Z" fill="#D56667"/>
<path id="path74" d="M136.444 229.979L133.188 227.198L178.981 246.975L213.193 267.293L216.429 270.068L136.444 229.979Z" fill="#AF4444"/>
<path id="path76" d="M133.188 227.198V221.192L213.193 261.292V267.293L133.188 227.198Z" fill="#C55153"/>
<path id="path78" d="M178.325 322.931L166.705 317.106L222.475 289.149L234.091 294.972L178.325 322.931Z" fill="#28333D"/>
<path id="path80" d="M234.223 290.111L232.457 291.62L231.743 289.954L229.383 287.356L232.111 286.932L234.223 290.111Z" fill="#BF2224"/>
<path id="path82" d="M234.223 293.104L232.82 293.807L231.803 291.62L232.82 290.81L234.223 290.111V293.104Z" fill="#971D1F"/>
<path id="path84" d="M230.709 287.636L221.757 283.145L219.643 284.204V287.202L221.757 290.377L230.709 294.865L232.82 293.807V290.81L230.709 287.636Z" fill="#C9322B"/>
<path id="path86" d="M230.709 287.636L221.757 283.145L223.156 282.442L232.111 286.932L230.709 287.636Z" fill="#DF4047"/>
<path id="path88" d="M195.557 313.047L186.28 308.393L183.939 304.87V301.547L186.28 300.372L195.557 305.021L197.901 308.55V311.871L195.557 313.047Z" fill="#614F49"/>
<path id="path90" d="M230.659 287.429L214.707 297.987L195.557 305.021L186.28 300.372L221.379 282.775L230.659 287.429Z" fill="#7D6563"/>
<path id="path92" d="M226.232 287.769L211.441 295.184L209.347 294.131L224.135 286.72L226.232 287.769Z" fill="#9E927D"/>
<path id="path94" d="M233.004 294.275L197.901 311.871V308.55L212.48 299.17L233.004 290.953V294.275Z" fill="#302624"/>
<path id="path96" d="M233.004 290.953L197.901 308.55L195.557 305.021L230.659 287.429L233.004 290.953Z" fill="#614F49"/>
<path id="path98" d="M197.511 308.513L195.744 310.024L195.031 308.357L192.671 305.765L195.396 305.335L197.511 308.513Z" fill="#BF2224"/>
<path id="path100" d="M197.511 311.508L196.105 312.21L195.089 310.024L196.105 309.215L197.511 308.513V311.508Z" fill="#971D1F"/>
<path id="path102" d="M193.991 306.038L185.041 301.549L182.929 302.608V305.607L185.041 308.779L193.991 313.272L196.105 312.21V309.215L193.991 306.038Z" fill="#C9322B"/>
<path id="path104" d="M193.991 306.038L185.041 301.549L186.44 300.85L195.396 305.335L193.991 306.038Z" fill="#DF4047"/>
<path id="path106" d="M193.996 311.152L191.367 312.472L189.288 308.916L193.996 308.155V311.152Z" fill="#971D1F"/>
<path id="path108" d="M182.827 314.014L179.327 312.256V309.26L185.127 309.823L182.827 314.014Z" fill="#C9322B"/>
<path id="path110" d="M191.367 312.472L182.827 314.014V311.021L186.28 308.637L191.367 309.478V312.472Z" fill="#BF2224"/>
<path id="path112" d="M185.031 303.661L182.401 304.981L179.327 309.26L182.827 311.021L191.367 309.478L193.996 308.155L185.031 303.661Z" fill="#DF4047"/>
<path id="path114" d="M178.512 311.263L175.977 313.092L174.567 315.108L179.595 311.226L179.277 310.876L178.512 311.263Z" fill="#971D1F"/>
<path id="path116" d="M174.567 315.108L177.285 315.048L180.369 314.036L181.137 313.655L180.943 313.237L174.567 315.108Z" fill="#971D1F"/>
<path id="path118" d="M179.277 310.876L176.52 312.817L174.567 315.108L177.148 313.292L177.955 313.156L178.844 312.76L179.635 312.072L180.705 311.931L181.628 310.775L180.545 310.238L179.277 310.876Z" fill="#BF2224"/>
<path id="path120" d="M180.361 311.418L177.277 313.199L174.567 315.108L176.713 314.678L177.597 314.148L178.385 314.01L179.605 313.68L180.215 313.237L181.135 312.807L182.401 311.927L181.628 310.775L180.361 311.418Z" fill="#DF4047"/>
<path id="path122" d="M174.569 315.108L177.828 314.772L181.137 313.655L182.401 313.013V311.927L181.135 312.565L177.82 314.01L174.569 315.108Z" fill="#BF2224"/>
<path id="path124" d="M179.139 321.278L169.861 316.627L167.517 313.103V309.777L169.861 308.6L179.139 313.255L181.483 316.78V320.103L179.139 321.278Z" fill="#614F49"/>
<path id="path126" d="M194.321 305.642L186.657 311.122L179.139 313.255L169.861 308.6L185.041 300.996L194.321 305.642Z" fill="#7D6563"/>
<path id="path128" d="M196.665 312.49L181.483 320.103V316.78L189.288 311.638L196.665 309.168V312.49Z" fill="#302624"/>
<path id="path130" d="M196.665 309.168L181.483 316.78L179.139 313.255L194.321 305.642L196.665 309.168Z" fill="#614F49"/>
<path id="path132" d="M181.089 316.747L179.327 318.252L178.611 316.59L176.257 313.994L178.977 313.568L181.089 316.747Z" fill="#BF2224"/>
<path id="path134" d="M181.089 319.741L179.689 320.441L178.672 318.252L179.689 317.448L181.089 316.747V319.741Z" fill="#971D1F"/>
<path id="path136" d="M177.577 314.27L168.62 309.783L166.509 310.839V313.838L168.62 317.015L177.577 321.501L179.689 320.441V317.448L177.577 314.27Z" fill="#C9322B"/>
<path id="path138" d="M177.577 314.27L168.62 309.783L170.024 309.083L178.977 313.568L177.577 314.27Z" fill="#DF4047"/>
<path id="path140" d="M430.577 394.823L385.987 372.468L386.347 372.287V372.354L413.339 358.736L457.947 381.101L430.577 394.823ZM288.853 323.77L252.463 305.527L279.839 291.805L316.196 310.033L288.853 323.77Z" fill="#28333D"/>
<path id="path142" d="M380.925 375.011L378.291 369.234L420.648 351.31V355.049L380.925 375.011Z" fill="#D2D2D0"/>
<path id="path144" d="M380.925 375.011L287.515 328.182V324.443L339.435 340.126L380.925 371.272V375.011Z" fill="#F6F2EB"/>
<path id="path146" d="M380.925 371.272L287.515 324.443L327.241 304.483L420.648 351.31L380.925 371.272Z" fill="white"/>
<path id="path148" d="M394.409 344.109L389.641 346.487L323.829 286.841L328.587 284.446L381.071 310.765L394.409 344.109Z" fill="#D2D2D0"/>
<path id="path150" d="M389.641 346.487L337.169 320.184L323.829 286.841L376.313 313.145L389.641 346.487Z" fill="#F6F2EB"/>
<path id="path152" d="M413.339 358.736L413.324 358.729L420.648 355.049V351.31V355.049L413.339 358.736Z" fill="#28333D"/>
<path id="path154" d="M386.347 372.354V372.287L413.324 358.729L413.339 358.736L386.347 372.354Z" fill="#1E2329"/>
<path id="path156" d="M386.347 372.287L386.381 368.53L420.648 351.31V355.049L413.324 358.729L386.347 372.287Z" fill="#8E8E8E"/>
<path id="path158" d="M386.381 368.53V368.529L292.977 321.7L327.241 304.483L331.803 306.771L337.169 320.184L389.641 346.487L394.409 344.109L391.431 336.662L420.648 351.31L386.381 368.53Z" fill="#B0B0AE"/>
<path id="path160" d="M389.641 346.487L384.281 333.079L391.431 336.662L394.409 344.109L389.641 346.487Z" fill="#8E8E8E"/>
<path id="path162" d="M389.641 346.487L337.169 320.184L331.803 306.771L384.281 333.079L389.641 346.487Z" fill="#A6A49E"/>
<path id="path164" d="M438.383 334.145L430.577 338.054L252.463 248.757L260.268 244.849L438.383 334.145Z" fill="#F6F2EB"/>
<path id="path166" d="M438.383 356.408L430.577 360.325L425.205 347.233L430.577 338.054L438.383 334.145V356.408Z" fill="#392E2B"/>
<path id="path168" d="M430.577 338.054L252.463 248.757V271.028L430.577 360.325V338.054Z" fill="#614F49"/>
<path id="path170" d="M438.383 234.547L430.577 238.465L252.463 149.168L260.268 145.263L438.383 234.547Z" fill="white"/>
<path id="path172" d="M438.383 334.145L430.577 338.054V238.465L438.383 234.547V334.145Z" fill="#D2D2D0"/>
<path id="path174" d="M430.577 238.465L252.463 149.168V248.764L430.577 338.054V238.465Z" fill="#F6F2EB"/>
<path id="path176" d="M427.868 332.583V333.968L255.175 247.406V153.255L256.585 153.954V246.697L427.868 332.583Z" fill="#9F988F"/>
<path id="path178" d="M427.868 239.818V332.583L256.585 246.697V153.954L427.868 239.818Z" fill="#8FD3C7"/>
<path id="path180" d="M250.007 340.005H236.147L226.349 335.089V328.141L234.632 323.988H201.455L197.716 322.117V319.463L201.455 317.589H269.385L273.124 319.463V322.117L269.385 323.988H251.524L259.813 328.141V335.089L250.007 340.005Z" fill="#28333D"/>
<path id="path182" d="M246.747 327.566L249.195 327.597L252.943 327.688L253.623 327.648V328.06L251.119 329.258L246.263 329.639L242.881 330.815L242.665 329.946L243.272 328.687L246.747 327.566Z" fill="#141111"/>
<path id="path184" d="M237.639 336.383L247.687 335.876L251.689 334.989V335.394L251.453 336.895L248.547 338.089L239.844 337.71L235.333 337.886L234.471 335.771V335.361L237.639 336.383Z" fill="#141111"/>
<path id="path186" d="M246.529 324.965L249.415 325.58L253.007 325.912L253.623 326.776V327.648L251.119 328.85L246.263 329.232L242.881 330.404L242.665 329.536V325.781L246.529 324.965Z" fill="#302624"/>
<path id="path188" d="M245.925 309.306L246.083 320.819L246.94 325.248L245.532 327.217L241.196 328.419L239.097 317.003L245.925 309.306Z" fill="#141111"/>
<path id="path190" d="M242.665 331.617L246.94 332.876L251.257 333.794L251.689 334.989L251.453 336.487L248.547 337.681L239.844 337.306L235.333 337.474L234.471 335.361L234.781 332.808L242.665 331.617Z" fill="#302624"/>
<path id="path192" d="M235.019 283.629L235.528 288.745L237.527 294.802L236.745 311.213L235.019 318.232L234.471 333.288L237.375 334.666L241.684 334.07L243.439 331.856L245.608 311.895L249.924 299.699L250.867 286.356L242.665 280.224L236.192 280.597L235.019 283.629Z" fill="#1F1919"/>
<path id="path194" d="M246.865 257.435L251.805 262.204L253.707 268.781L249.375 268.983L243.617 259.164L246.865 257.435Z" fill="white"/>
<path id="path196" d="M238 252.635L235.251 253.08L227.727 261.968L229.291 267.55L237.639 276.169L241.255 272.489L240.389 255.412L238 252.635Z" fill="#1F1919"/>
<path id="path198" d="M204.843 317.757L204.149 317.164L202.849 320.625L204.843 317.757Z" fill="#7D6563"/>
<path id="path200" d="M205.965 318.205L205.064 317.861L202.849 320.625L205.965 318.205Z" fill="#392E2B"/>
<path id="path202" d="M205.235 318.17L205.257 317.844L204.483 317.74L202.849 320.625L205.235 318.17Z" fill="#614F49"/>
<path id="path204" d="M213.295 312.556L210.815 309.332L207.203 309.064L206.337 312.325L204.483 317.74L205.235 318.17L209.772 314.252L213.295 312.556Z" fill="#EEBF77"/>
<path id="path206" d="M213.295 312.556L210.828 312.429L205.235 318.17L205.965 318.205L213.295 312.556Z" fill="#C39749"/>
<path id="path208" d="M208.303 310.984L207.203 309.064L204.149 317.164L204.483 317.74L208.303 310.984Z" fill="#F6E7AE"/>
<path id="path210" d="M259.684 248.128L257.163 246.682L256.057 244.768L257.016 243.503L259.476 243.631L262.001 245.078L263.097 246.99L262.148 248.255L259.684 248.128Z" fill="#72514F"/>
<path id="path212" d="M257.163 246.682L256.057 244.768L207.203 309.064L208.303 310.984L257.179 246.931L257.163 246.682Z" fill="#DF4047"/>
<path id="path214" d="M259.684 248.128L257.163 246.682L208.303 310.984L210.828 312.429L259.787 248.37L259.684 248.128Z" fill="#C9322B"/>
<path id="path216" d="M262.148 248.255L259.684 248.128L210.828 312.429L213.295 312.556L262.148 248.255Z" fill="#881B1D"/>
<path id="path218" d="M265.363 240.647L262.852 239.202L261.743 237.286L262.707 236.024L265.168 236.153L267.687 237.596L268.788 239.513L267.829 240.775L265.363 240.647Z" fill="#D9D1C3"/>
<path id="path220" d="M262.852 239.202L261.743 237.285L256.057 244.768L257.157 246.682L262.86 239.452L262.852 239.202Z" fill="#E8E2DC"/>
<path id="path222" d="M265.363 240.647L262.852 239.202L257.157 246.682L259.681 248.128L265.471 240.889L265.363 240.647Z" fill="#D2D2D0"/>
<path id="path224" d="M267.829 240.775L265.363 240.647L259.681 248.128L262.139 248.254L267.829 240.775Z" fill="#9F988F"/>
<path id="path226" d="M268.111 236.851L265.785 235.525L264.775 233.76L265.657 232.598L267.917 232.715L270.237 234.044L271.256 235.808L270.369 236.969L268.111 236.851Z" fill="#A43659"/>
<path id="path228" d="M265.785 235.525L264.775 233.76L262.165 237.2L263.179 238.964L265.805 235.75L265.785 235.525Z" fill="#F79285"/>
<path id="path230" d="M268.111 236.851L265.785 235.525L263.179 238.964L265.5 240.292L268.203 237.067L268.111 236.851Z" fill="#D56667"/>
<path id="path232" d="M270.369 236.969L268.111 236.851L265.5 240.292L267.763 240.412L270.369 236.969Z" fill="#C25855"/>
<path id="path234" d="M252.283 253.109L251.173 251.194L249.08 253.949L250.183 255.86L252.296 253.355L252.283 253.109Z" fill="#97B753"/>
<path id="path236" d="M254.797 254.553L252.283 253.109L250.183 255.86L252.705 257.308L254.903 254.795L254.797 254.553Z" fill="#7DA450"/>
<path id="path238" d="M257.26 254.681L254.797 254.553L252.705 257.308L255.167 257.437L257.26 254.681Z" fill="#6F9B4E"/>
<path id="path240" d="M235.453 263.226L230.507 265.983L235.453 264.608V263.226Z" fill="#141111"/>
<path id="path242" d="M246.179 253.76V258.065H244.429L240.489 256.519L238.253 253.841V251.986L239.844 250.709L245.861 251.185L246.179 253.76Z" fill="#C59D8D"/>
<path id="path244" d="M238.351 254.286L240.233 256.893L246.529 258.806L250.559 262.037L253.352 268.264L252.771 289.894L250.529 292.619L245.853 293.674H241.171L235.761 291.069L235.399 288.665L235.379 285.092L235.943 283.024L235.211 284.749L234.883 286.908L234.587 283.358L237.116 275.181L234.289 265.627L233.528 259.139L235.307 254.07L238.08 252.428L238.351 254.286Z" fill="#302624"/>
<path id="path246" d="M238.845 252.575L239.147 253.571L240.792 255.537L244.588 256.942L247.328 257.077L246.672 259.431L243.617 259.164L239.171 257.221L237.527 254.824L237.295 252.575H238.845Z" fill="white"/>
<path id="path248" d="M254.515 262.165L255.256 260.457L258.433 259.432L260.987 259.921V261.742L255.751 263.639L254.515 262.165Z" fill="#9F988F"/>
<path id="path250" d="M254.708 260.336L255.236 259.262L257.283 258.396L258.944 258.594L259.199 260.336L255.919 261.335L254.708 260.336Z" fill="#D2D2D0"/>
<path id="path252" d="M255.628 257.965L254.828 259.752L255.628 261.813H256.927L259.748 260.684L258.04 257.982L257.089 257.709L255.628 257.965Z" fill="#F1BFAD"/>
<path id="path254" d="M244.028 241.595L246.883 243.403L248.353 245.448V246.441L250.559 247.798L249.825 249.098L250.353 252.624L248.144 253.853L244.263 254.286L243.559 252.883L241.556 252.958L240.195 252.193L238.296 249.737L237.055 244.911L240.941 241.595H244.028Z" fill="#F1BFAD"/>
<path id="path256" d="M242.275 240.818L244.119 241.635L244.429 242.212L244 243.232L242.155 243.78L240.233 244.802V245.72L241.367 246.197L243.288 246.537L244.076 247.697L244.119 249.263L244.429 250.353L243.648 251.001L242.589 250.011L240.941 249.977L239.957 250.728L240.195 252.193L239.211 253.176L238.116 253.314L235.488 251.817L233.685 249.295L233.255 246.606L234.037 243.744L236.507 241.665L239.255 240.818H242.275Z" fill="#583B33"/>
<path id="path258" d="M250.16 251.068L254.005 252.023L256.159 253.963L258.04 257.982L254.828 259.752L252.041 258.354L250.867 257.063L249.375 255.767L249.963 254.982L251.297 255.664L252.239 256.519L252.977 256.244L251.921 252.971L250.16 252.09V251.068Z" fill="#F1BFAD"/>
<path id="path260" d="M255.743 263.429L254.708 260.336L256.357 260.684L258.384 259.921L258.944 258.594L260.729 261.403L259.656 263.15L258.04 263.763L255.743 263.429Z" fill="white"/>
<path id="path262" d="M237.884 265.577L241.592 263.226L246.119 263.763L256.473 268.183L254.515 262.165L256.981 262.344L259.625 261.439L260.987 259.921L265.144 271.39L263.94 274.568L260.825 276.611L242.531 272.63L238.845 269.459L237.884 265.577Z" fill="#1F1919"/>
<path id="path264" d="M256.473 268.183L260.059 272.982V271.248L256.473 268.183Z" fill="#141111"/>
<path id="path266" d="M402.288 183.603L399.013 185.249L276.083 123.618L279.368 121.978L402.288 183.603Z" fill="#8FD3C7"/>
<path id="path268" d="M402.288 193.746L399.013 195.397V185.249L402.288 183.603V193.746Z" fill="#3C6266"/>
<path id="path270" d="M402.288 307.953L399.013 309.599V195.397L402.288 193.746V307.953Z" fill="#D2D2D0"/>
<path id="path272" d="M399.013 185.249L276.083 123.618V133.772L399.013 195.397V185.249Z" fill="#449C98"/>
<path id="path274" d="M374.329 178.032L372.495 175.275L369.904 173.975L368.079 174.893V177.493L369.904 180.253L372.495 181.556L374.329 180.632V178.032Z" fill="#A8C72A"/>
<path id="path276" d="M372.495 175.275L369.904 173.975L371.264 173.292L373.865 174.594L372.84 175.314L372.495 175.275Z" fill="#D4E843"/>
<path id="path278" d="M374.329 178.032L372.495 175.275L373.865 174.594L375.7 177.35L374.657 178.16L374.329 178.032Z" fill="#D4D72E"/>
<path id="path280" d="M374.329 180.632V178.032L375.7 177.35V179.95L374.329 180.632Z" fill="#87A333"/>
<path id="path282" d="M383.024 182.389L381.177 179.629L378.588 178.329L376.76 179.247V181.849L378.588 184.61L381.177 185.906L383.024 184.988V182.389Z" fill="#88D8E2"/>
<path id="path284" d="M381.177 179.629L378.588 178.329L379.96 177.645L382.548 178.946L381.536 179.668L381.177 179.629Z" fill="#C4ECF6"/>
<path id="path286" d="M383.024 182.39L381.177 179.629L382.548 178.946L384.385 181.704L383.347 182.512L383.024 182.39Z" fill="#93A5DB"/>
<path id="path288" d="M383.024 184.988V182.39L384.385 181.704V184.3L383.024 184.988Z" fill="#60A0AC"/>
<path id="path290" d="M391.715 186.746L389.875 183.985L387.283 182.687L385.447 183.606V186.208L387.283 188.964L389.875 190.262L391.715 189.341V186.746Z" fill="#BF2224"/>
<path id="path292" d="M389.875 183.985L387.283 182.687L388.644 182L391.243 183.299L390.215 184.022L389.875 183.985Z" fill="#DF4047"/>
<path id="path294" d="M391.715 186.746L389.875 183.985L391.243 183.299L393.084 186.062L392.04 186.864L391.715 186.746Z" fill="#BF2224"/>
<path id="path296" d="M391.715 189.341V186.746L393.084 186.062V188.66L391.715 189.341Z" fill="#971D1F"/>
<path id="path298" d="M276.083 247.975L399.013 309.599V195.397L276.083 133.772V247.975Z" fill="white"/>
<path id="path300" d="M276.083 168.164L399.013 229.788V229.35L276.083 167.724V168.164Z" fill="#DF4047"/>
<path id="path302" d="M390.807 200.281L284.285 146.883L283.165 147.442V148.662L284.285 150.346L390.807 203.746L391.92 203.184V201.968L390.807 200.281Z" fill="#D2D2D0"/>
<path id="path304" d="M323.849 176.96L324.971 176.399V175.174L323.849 173.5L284.311 153.667L283.187 154.233V155.448L284.311 157.13L323.849 176.96Z" fill="#D2D2D0"/>
<path id="path306" d="M284.311 160.453L283.187 161.019V162.235L284.311 163.916L363.745 203.746L364.864 203.184V201.961L363.745 200.286L284.311 160.453Z" fill="#D2D2D0"/>
<path id="path308" d="M288.9 183.328V197.571L303.109 204.694V190.451L288.9 183.328ZM290.341 185.492L301.673 191.171V202.53L290.341 196.85V185.492Z" fill="#4A8AAC"/>
<path id="path310" d="M288.9 204.943V219.186L303.109 226.309V212.063L288.9 204.943ZM290.341 207.106L301.673 212.787V224.145L290.341 218.466V207.106Z" fill="#4A8AAC"/>
<path id="path312" d="M288.9 226.556V240.801L303.109 247.924V233.678L288.9 226.556ZM290.341 228.72L301.673 234.4V245.76L290.341 240.078V228.72Z" fill="#4A8AAC"/>
<path id="path314" d="M297.128 194.986L296.089 191.595L295.052 193.945L297.128 194.986ZM299.335 199.207L298.264 198.67L297.507 196.196L294.673 194.775L293.916 196.49L292.835 195.948L295.539 189.822L296.631 190.37L299.335 199.207Z" fill="#DFBA45"/>
<path id="path316" d="M297.563 218.748V217.522L297.113 216.833L294.381 215.465V217.624L297.101 218.988L297.563 218.748ZM297.563 215.248V214.262L297.088 213.538L294.381 212.181V214.445L296.777 215.645L297.563 215.248ZM298.579 219.681L297.507 220.211L293.365 218.135V210.652L297.507 212.728L298.579 214.333V216.184L297.871 216.53L298.579 217.596V219.681Z" fill="#DFBA45"/>
<path id="path318" d="M299.079 241.495L298.015 242.019L294.08 240.047L293.016 238.456V233.089L294.08 232.564L298.015 234.537L299.079 236.128L298.353 236.491L297.596 235.347L294.484 233.787L294.032 234.023V238.527L294.499 239.238L297.611 240.797L298.36 240.414L299.079 241.495Z" fill="#DFBA45"/>
<path id="path320" d="M383.609 233.024L309.388 195.814L308.604 196.205V197.055L309.388 198.228L383.609 235.437L384.385 235.046V234.199L383.609 233.024Z" fill="#D2D2D0"/>
<path id="path322" d="M362.916 229.788L363.697 229.396V228.544L362.916 227.377L309.404 200.541L308.62 200.937V201.785L309.404 202.955L362.916 229.788Z" fill="#D2D2D0"/>
<path id="path324" d="M383.609 254.31L309.388 217.102L308.604 217.492V218.342L309.388 219.514L383.609 256.723L384.385 256.332V255.487L383.609 254.31Z" fill="#D2D2D0"/>
<path id="path326" d="M336.956 238.059L337.739 237.668V236.815L336.956 235.648L309.404 221.829L308.62 222.223V223.071L309.404 224.242L336.956 238.059Z" fill="#D2D2D0"/>
<path id="path328" d="M383.609 275.675L309.388 238.465L308.604 238.857V239.706L309.388 240.878L383.609 278.088L384.385 277.695V276.849L383.609 275.675Z" fill="#D2D2D0"/>
<path id="path330" d="M383.603 282.815L384.385 282.426V281.573L383.603 280.406L309.404 243.195L308.62 243.587V244.435L309.404 245.606L383.603 282.815Z" fill="#D2D2D0"/>
<path id="path332" d="M270.516 143.785L268.04 145.03L175.115 98.4425L177.599 97.2014L270.516 143.785Z" fill="#C9E15C"/>
<path id="path334" d="M270.516 151.452L268.04 152.702V145.03L270.516 143.785V151.452Z" fill="#6F9B4E"/>
<path id="path336" d="M270.516 227.997L268.04 229.241V152.702L270.516 151.452V227.997Z" fill="#D2D2D0"/>
<path id="path338" d="M268.04 145.03L175.115 98.4425V106.117L268.04 152.702V145.03Z" fill="#97B753"/>
<path id="path340" d="M249.383 139.575L247.995 137.49L246.036 136.508L244.656 137.201V139.167L246.036 141.254L247.995 142.238L249.383 141.54V139.575Z" fill="#A8C72A"/>
<path id="path342" d="M247.995 137.49L246.036 136.508L247.064 135.99L249.031 136.977L248.256 137.52L247.995 137.49Z" fill="#D4E843"/>
<path id="path344" d="M249.383 139.575L247.995 137.49L249.031 136.977L250.419 139.059L249.629 139.672L249.383 139.575Z" fill="#D4D72E"/>
<path id="path346" d="M249.383 141.54V139.575L250.419 139.058V141.024L249.383 141.54Z" fill="#87A333"/>
<path id="path348" d="M255.953 142.868L254.559 140.782L252.601 139.799L251.22 140.494V142.46L252.601 144.548L254.559 145.526L255.953 144.832V142.868Z" fill="#88D8E2"/>
<path id="path350" d="M254.559 140.782L252.601 139.799L253.639 139.281L255.595 140.266L254.831 140.81L254.559 140.782Z" fill="#C4ECF6"/>
<path id="path352" d="M255.953 142.868L254.559 140.782L255.595 140.266L256.984 142.35L256.197 142.961L255.953 142.868Z" fill="#93A5DB"/>
<path id="path354" d="M255.953 144.832V142.868L256.984 142.35V144.312L255.953 144.832Z" fill="#60A0AC"/>
<path id="path356" d="M262.524 146.163L261.133 144.074L259.173 143.093L257.785 143.789V145.754L259.173 147.839L261.133 148.82L262.524 148.123V146.163Z" fill="#BF2224"/>
<path id="path358" d="M261.133 144.074L259.173 143.093L260.203 142.575L262.167 143.556L261.389 144.103L261.133 144.074Z" fill="#DF4047"/>
<path id="path360" d="M262.524 146.163L261.133 144.074L262.167 143.556L263.559 145.644L262.771 146.252L262.524 146.163Z" fill="#BF2224"/>
<path id="path362" d="M262.524 148.123V146.163L263.559 145.644V147.609L262.524 148.123Z" fill="#971D1F"/>
<path id="path364" d="M175.115 182.658L268.04 229.241V152.702L175.115 106.117V182.658Z" fill="white"/>
<path id="path366" d="M175.115 125.941L268.04 172.524V172.193L175.115 125.607V125.941Z" fill="#DF4047"/>
<path id="path368" d="M261.837 156.393L181.316 116.028L180.469 116.452V117.373L181.316 118.647L261.837 159.012L262.68 158.588V157.669L261.837 156.393Z" fill="#D2D2D0"/>
<path id="path370" d="M223.343 144.839L224.191 144.417V143.49L223.343 142.225L181.335 121.157L180.485 121.584V122.502L181.335 123.775L223.343 144.839Z" fill="#D2D2D0"/>
<path id="path372" d="M256.397 174.969L200.292 146.842L199.699 147.137V147.781L200.292 148.667L256.397 176.794L256.984 176.499V175.858L256.397 174.969Z" fill="#D2D2D0"/>
<path id="path374" d="M240.753 172.524L241.345 172.229V171.583L240.753 170.702L200.304 150.415L199.711 150.714V151.355L200.304 152.24L240.753 172.524Z" fill="#D2D2D0"/>
<path id="path376" d="M184.804 137.404V148.171L195.545 153.555V142.788L184.804 137.404ZM185.893 139.04L194.459 143.333V151.919L185.893 147.626V139.04Z" fill="#4A8AAC"/>
<path id="path378" d="M184.804 153.744V164.51L195.545 169.894V159.125L184.804 153.744ZM185.893 155.379L194.459 159.672V168.258L185.893 163.966V155.379Z" fill="#C9E15C"/>
<path id="path380" d="M183.387 153.56L189.908 165.059L206.349 152.966L190.175 159.904L183.387 153.56Z" fill="#97B753"/>
<path id="path382" d="M184.804 170.081V180.848L195.545 186.232V175.464L184.804 170.081ZM185.893 171.716L194.459 176.01V184.597L185.893 180.303V171.716Z" fill="#4A8AAC"/>
<path id="path384" d="M191.033 146.22L190.249 143.656L189.464 145.433L191.033 146.22ZM192.701 149.411L191.891 149.005L191.32 147.134L189.177 146.061L188.605 147.357L187.788 146.948L189.832 142.316L190.657 142.73L192.701 149.411Z" fill="#DFBA45"/>
<path id="path386" d="M192.507 181.378L191.703 181.774L188.727 180.281L187.924 179.081V175.023L188.727 174.627L191.703 176.118L192.507 177.32L191.957 177.595L191.387 176.73L189.033 175.551L188.692 175.729V179.134L189.044 179.67L191.396 180.85L191.964 180.56L192.507 181.378Z" fill="#DFBA45"/>
<path id="path388" d="M256.397 191.059L200.292 162.933L199.699 163.228V163.872L200.292 164.757L256.397 192.886L256.984 192.588V191.95L256.397 191.059Z" fill="#D2D2D0"/>
<path id="path390" d="M221.129 178.776L221.721 178.481V177.836L221.129 176.954L200.304 166.508L199.711 166.806V167.446L200.304 168.332L221.129 178.776Z" fill="#D2D2D0"/>
<path id="path392" d="M256.397 207.211L200.292 179.084L199.699 179.379V180.021L200.292 180.906L256.397 209.035L256.984 208.738V208.098L256.397 207.211Z" fill="#D2D2D0"/>
<path id="path394" d="M256.392 212.609L256.984 212.315V211.67L256.392 210.787L200.304 182.658L199.711 182.954V183.596L200.304 184.482L256.392 212.609Z" fill="#D2D2D0"/>
<path id="path396" d="M504.488 261.082L502.012 262.327L409.085 215.739L411.571 214.499L504.488 261.082Z" fill="#8FD3C7"/>
<path id="path398" d="M504.488 268.75L502.012 269.999V262.327L504.488 261.083V268.75Z" fill="#3C6266"/>
<path id="path400" d="M504.488 345.293L502.012 346.538V269.999L504.488 268.75V345.293Z" fill="#D2D2D0"/>
<path id="path402" d="M502.012 262.327L409.085 215.739V223.415L502.012 269.999V262.327Z" fill="#449C98"/>
<path id="path404" d="M483.353 256.872L481.967 254.788L480.007 253.805L478.627 254.498V256.464L480.007 258.55L481.967 259.536L483.353 258.836V256.872Z" fill="#A8C72A"/>
<path id="path406" d="M481.967 254.788L480.007 253.805L481.035 253.288L483.003 254.274L482.228 254.818L481.967 254.788Z" fill="#D4E843"/>
<path id="path408" d="M483.353 256.872L481.967 254.788L483.003 254.274L484.389 256.355L483.6 256.969L483.353 256.872Z" fill="#D4D72E"/>
<path id="path410" d="M483.353 258.836V256.872L484.389 256.355V258.322L483.353 258.836Z" fill="#87A333"/>
<path id="path412" d="M489.924 260.166L488.529 258.08L486.573 257.097L485.192 257.791V259.757L486.573 261.844L488.529 262.824L489.924 262.13V260.166Z" fill="#88D8E2"/>
<path id="path414" d="M488.529 258.08L486.573 257.097L487.609 256.579L489.567 257.563L488.801 258.108L488.529 258.08Z" fill="#C4ECF6"/>
<path id="path416" d="M489.924 260.166L488.529 258.08L489.567 257.563L490.955 259.648L490.169 260.258L489.924 260.166Z" fill="#93A5DB"/>
<path id="path418" d="M489.924 262.13V260.166L490.955 259.648V261.61L489.924 262.13Z" fill="#60A0AC"/>
<path id="path420" d="M496.495 263.461L495.105 261.372L493.144 260.39L491.756 261.086V263.051L493.144 265.136L495.105 266.118L496.495 265.421V263.461Z" fill="#BF2224"/>
<path id="path422" d="M495.105 261.372L493.144 260.39L494.173 259.871L496.139 260.854L495.361 261.4L495.105 261.372Z" fill="#DF4047"/>
<path id="path424" d="M496.495 263.461L495.105 261.372L496.139 260.854L497.529 262.942L496.741 263.549L496.495 263.461Z" fill="#BF2224"/>
<path id="path426" d="M496.495 265.421V263.461L497.529 262.942V264.907L496.495 265.421Z" fill="#971D1F"/>
<path id="path428" d="M409.085 299.955L502.012 346.538V269.999L409.085 223.415V299.955Z" fill="white"/>
<path id="path430" d="M409.085 243.238L502.012 289.821V289.49L409.085 242.905V243.238Z" fill="#DF4047"/>
<path id="path432" d="M495.808 273.691L415.288 233.326L414.441 233.749V234.67L415.288 235.944L495.808 276.308L496.651 275.885V274.965L495.808 273.691Z" fill="#D2D2D0"/>
<path id="path434" d="M457.313 262.137L458.163 261.715V260.787L457.313 259.522L415.305 238.454L414.457 238.882V239.8L415.305 241.071L457.313 262.137Z" fill="#D2D2D0"/>
<path id="path436" d="M490.368 292.267L434.264 264.14L433.671 264.434V265.079L434.264 265.964L490.368 294.092L490.955 293.795V293.155L490.368 292.267Z" fill="#D2D2D0"/>
<path id="path438" d="M474.725 289.821L475.316 289.526V288.881L474.725 288L434.275 267.713L433.683 268.012V268.652L434.275 269.538L474.725 289.821Z" fill="#D2D2D0"/>
<path id="path440" d="M418.775 254.702V265.468L429.517 270.852V260.086L418.775 254.702ZM419.865 256.337L428.429 260.63V269.216L419.865 264.923V256.337Z" fill="#4A8AAC"/>
<path id="path442" d="M418.775 271.041V281.807L429.517 287.192V276.423L418.775 271.041ZM419.865 272.675L428.429 276.97V285.556L419.865 281.264V272.675Z" fill="#4A8AAC"/>
<path id="path444" d="M418.775 287.378V298.146L429.517 303.53V292.762L418.775 287.378ZM419.865 289.014L428.429 293.307V301.895L419.865 297.601V289.014Z" fill="#4A8AAC"/>
<path id="path446" d="M425.005 263.517L424.22 260.954L423.435 262.731L425.005 263.517ZM426.673 266.708L425.861 266.303L425.292 264.432L423.148 263.359L422.577 264.654L421.759 264.244L423.804 259.614L424.628 260.028L426.673 266.708Z" fill="#DFBA45"/>
<path id="path448" d="M425.333 281.601V280.673L424.993 280.153L422.928 279.118V280.751L424.984 281.781L425.333 281.601ZM425.333 278.954V278.208L424.973 277.662L422.928 276.637V278.347L424.739 279.255L425.333 278.954ZM426.101 282.307L425.292 282.706L422.161 281.136V275.481L425.292 277.051L426.101 278.263V279.663L425.565 279.923L426.101 280.73V282.307Z" fill="#DFBA45"/>
<path id="path450" d="M426.479 298.676L425.675 299.07L422.697 297.578L421.896 296.377V292.319L422.697 291.923L425.675 293.416L426.479 294.617L425.929 294.892L425.357 294.027L423.005 292.847L422.664 293.027V296.432L423.016 296.968L425.367 298.146L425.935 297.858L426.479 298.676Z" fill="#DFBA45"/>
<path id="path452" d="M490.368 308.357L434.264 280.231L433.671 280.526V281.17L434.264 282.054L490.368 310.183L490.955 309.886V309.247L490.368 308.357Z" fill="#D2D2D0"/>
<path id="path454" d="M455.1 296.074L455.693 295.779V295.134L455.1 294.251L434.275 283.805L433.683 284.104V284.743L434.275 285.629L455.1 296.074Z" fill="#D2D2D0"/>
<path id="path456" d="M490.368 324.508L434.264 296.381L433.671 296.676V297.319L434.264 298.204L490.368 326.333L490.955 326.035V325.396L490.368 324.508Z" fill="#D2D2D0"/>
<path id="path458" d="M490.363 329.905L490.955 329.611V328.968L490.363 328.085L434.275 299.955L433.683 300.251V300.894L434.275 301.778L490.363 329.905Z" fill="#D2D2D0"/>
<path id="path460" d="M315.34 452.648L145.417 367.465L146.765 366.789V367.585L315.201 452.027V448.278L304.443 439.283L159.548 366.531L150.908 364.713L209.059 335.567L378.973 420.749L315.34 452.648Z" fill="#28333D"/>
<path id="path462" d="M315.201 452.027L309.768 443.036L378.285 416.657V420.4L315.201 452.027Z" fill="#D2D2D0"/>
<path id="path464" d="M315.201 452.027L146.765 367.585V363.841L159.548 366.531L304.443 439.283L315.201 448.278V452.027Z" fill="#F6F2EB"/>
<path id="path466" d="M315.201 448.278L146.765 363.841L209.851 332.215L378.285 416.657L315.201 448.278Z" fill="white"/>
<path id="path468" d="M344.957 407.668L338.243 404.3L341.084 402.872L347.796 406.243L344.957 407.668Z" fill="#F6F2EB"/>
<path id="path470" d="M352.443 411.421L345.725 408.049L348.568 406.624L355.285 409.994L352.443 411.421Z" fill="#F6F2EB"/>
<path id="path472" d="M359.923 415.173L353.205 411.805L356.048 410.375L362.767 413.747L359.923 415.173Z" fill="#F6F2EB"/>
<path id="path474" d="M344.589 406.479L340.619 404.484L341.452 404.068L345.421 406.059L344.589 406.479Z" fill="#D4E843"/>
<path id="path476" d="M352.076 410.226L348.104 408.233L348.937 407.821L352.905 409.808L352.076 410.226Z" fill="#D4E843"/>
<path id="path478" d="M359.553 413.979L355.584 411.989L356.417 411.572L360.387 413.562L359.553 413.979Z" fill="#D4E843"/>
<path id="path480" d="M218.511 341.429V339.667L205.208 335.848V337.608L215.671 342.852L218.511 341.429Z" fill="#D2D2D0"/>
<path id="path482" d="M218.511 339.667L208.055 334.427L205.208 335.848L215.671 341.09L218.511 339.667Z" fill="white"/>
<path id="path484" d="M223.113 346.584L225.956 345.156V343.396L216.397 341.451V343.213L223.113 346.584Z" fill="#D2D2D0"/>
<path id="path486" d="M223.113 344.822L225.956 343.396L219.239 340.027L216.397 341.451L223.113 344.822Z" fill="white"/>
<path id="path488" d="M230.595 350.334L233.441 348.909V347.146L223.879 345.204V346.965L230.595 350.334Z" fill="#D2D2D0"/>
<path id="path490" d="M230.595 348.572L233.441 347.146L226.719 343.781L223.879 345.204L230.595 348.572Z" fill="white"/>
<path id="path492" d="M238.076 354.084L240.923 352.663V350.899L231.361 348.958V350.718L238.076 354.084Z" fill="#D2D2D0"/>
<path id="path494" d="M238.076 352.327L240.923 350.899L234.203 347.536L231.361 348.958L238.076 352.327Z" fill="white"/>
<path id="path496" d="M245.563 357.841L248.404 356.414V354.653L238.843 352.712V354.468L245.563 357.841Z" fill="#D2D2D0"/>
<path id="path498" d="M245.563 356.076L248.404 354.653L241.687 351.279L238.843 352.712L245.563 356.076Z" fill="white"/>
<path id="path500" d="M253.045 361.59L255.888 360.162V358.405L246.328 356.458V358.221L253.045 361.59Z" fill="#D2D2D0"/>
<path id="path502" d="M253.045 359.827L255.888 358.405L249.171 355.036L246.328 356.458L253.045 359.827Z" fill="white"/>
<path id="path504" d="M260.528 365.344L263.371 363.917V362.154L253.809 360.214V361.975L260.528 365.344Z" fill="#D2D2D0"/>
<path id="path506" d="M260.528 363.581L263.371 362.154L256.655 358.786L253.809 360.214L260.528 363.581Z" fill="white"/>
<path id="path508" d="M268.009 369.096L270.855 367.67V365.909L261.293 363.967V365.727L268.009 369.096Z" fill="#D2D2D0"/>
<path id="path510" d="M268.009 367.334L270.855 365.909L264.135 362.544L261.293 363.967L268.009 367.334Z" fill="white"/>
<path id="path512" d="M275.493 372.85L278.337 371.421V369.662L268.777 367.716V369.477L275.493 372.85Z" fill="#D2D2D0"/>
<path id="path514" d="M275.493 371.085L278.337 369.662L271.62 366.29L268.777 367.716L275.493 371.085Z" fill="white"/>
<path id="path516" d="M282.975 376.595L285.821 375.168V373.408L276.256 371.469V373.225L282.975 376.595Z" fill="#D2D2D0"/>
<path id="path518" d="M282.975 374.834L285.821 373.408L279.1 370.041L276.256 371.468L282.975 374.834Z" fill="white"/>
<path id="path520" d="M290.46 380.348L293.304 378.92V377.161L283.743 375.217V376.978L290.46 380.348Z" fill="#D2D2D0"/>
<path id="path522" d="M290.46 378.586L293.304 377.161L286.584 373.791L283.743 375.217L290.46 378.586Z" fill="white"/>
<path id="path524" d="M297.941 384.098L300.785 382.672V380.917L291.225 378.971V380.731L297.941 384.098Z" fill="#D2D2D0"/>
<path id="path526" d="M297.941 382.341L300.785 380.917L294.068 377.546L291.225 378.971L297.941 382.341Z" fill="white"/>
<path id="path528" d="M305.421 387.849L308.265 386.427V384.666L298.705 382.722V384.485L305.421 387.849Z" fill="#D2D2D0"/>
<path id="path530" d="M305.421 386.095L308.265 384.666L301.551 381.298L298.705 382.722L305.421 386.095Z" fill="white"/>
<path id="path532" d="M312.908 391.599L315.755 390.174V388.415L306.191 386.472V388.232L312.908 391.599Z" fill="#D2D2D0"/>
<path id="path534" d="M312.908 389.841L315.755 388.415L309.031 385.043L306.191 386.472L312.908 389.841Z" fill="white"/>
<path id="path536" d="M210.507 345.438V343.675L193.331 341.804V343.565L203.789 348.806L210.507 345.438Z" fill="#D2D2D0"/>
<path id="path538" d="M210.507 343.675L200.049 338.436L193.331 341.804L203.789 347.046L210.507 343.675Z" fill="white"/>
<path id="path540" d="M214.439 347.413L211.232 345.81L208.027 347.413H204.516V349.174L211.232 352.546L217.951 349.174V347.413H214.439Z" fill="#D2D2D0"/>
<path id="path542" d="M211.232 344.042L204.516 347.413L211.232 350.78L217.951 347.413L211.232 344.042Z" fill="white"/>
<path id="path544" d="M221.923 351.162L218.717 349.553L215.508 351.162H211.996V352.917L218.717 356.289L225.433 352.917V351.162H221.923Z" fill="#D2D2D0"/>
<path id="path546" d="M218.717 347.792L211.996 351.162L218.717 354.529L225.433 351.162L218.717 347.792Z" fill="white"/>
<path id="path548" d="M229.405 354.912L226.195 353.303L222.989 354.912H219.479V356.672L226.195 360.042L232.916 356.672V354.912H229.405Z" fill="#D2D2D0"/>
<path id="path550" d="M226.195 351.545L219.479 354.912L226.195 358.278L232.916 354.912L226.195 351.545Z" fill="white"/>
<path id="path552" d="M236.887 358.667L233.683 357.055L230.472 358.667H226.963V360.426L233.683 363.798L240.399 360.426V358.667H236.887Z" fill="#D2D2D0"/>
<path id="path554" d="M233.683 355.299L226.963 358.667L233.683 362.031L240.399 358.667L233.683 355.299Z" fill="white"/>
<path id="path556" d="M244.371 362.417L241.164 360.808L237.956 362.417H234.445V364.18L241.164 367.542L247.88 364.18V362.417H244.371Z" fill="#D2D2D0"/>
<path id="path558" d="M241.164 359.047L234.445 362.417L241.164 365.786L247.88 362.417L241.164 359.047Z" fill="white"/>
<path id="path560" d="M251.853 366.164L248.647 364.558L245.44 366.164H241.929V367.926L248.647 371.292L255.367 367.926V366.164H251.853Z" fill="#D2D2D0"/>
<path id="path562" d="M248.647 362.799L241.929 366.164L248.647 369.534L255.367 366.164L248.647 362.799Z" fill="white"/>
<path id="path564" d="M259.336 369.917L256.129 368.308L252.921 369.917H249.409V371.677L256.129 375.044L262.847 371.677V369.917H259.336Z" fill="#D2D2D0"/>
<path id="path566" d="M256.129 366.547L249.409 369.917L256.129 373.283L262.847 369.917L256.129 366.547Z" fill="white"/>
<path id="path568" d="M266.819 373.671L263.611 372.061L260.405 373.671H256.896V375.432L263.611 378.797L270.332 375.432V373.671H266.819Z" fill="#D2D2D0"/>
<path id="path570" d="M263.611 370.303L256.896 373.671L263.611 377.042L270.332 373.671L263.611 370.303Z" fill="white"/>
<path id="path572" d="M274.3 377.424L271.093 375.817L267.889 377.424H264.379V379.18L271.093 382.551L277.813 379.18V377.424H274.3Z" fill="#D2D2D0"/>
<path id="path574" d="M271.093 374.051L264.379 377.424L271.093 380.789L277.813 377.424L271.093 374.051Z" fill="white"/>
<path id="path576" d="M281.788 381.168L278.58 379.565L275.375 381.168H271.863V382.934L278.58 386.303L285.297 382.934V381.168H281.788Z" fill="#D2D2D0"/>
<path id="path578" d="M278.58 377.805L271.863 381.168L278.58 384.543L285.297 381.168L278.58 377.805Z" fill="white"/>
<path id="path580" d="M289.268 384.922L286.064 383.316L282.855 384.922H279.343V386.684L286.064 390.052L292.779 386.684V384.922H289.268Z" fill="#D2D2D0"/>
<path id="path582" d="M286.064 381.557L279.343 384.922L286.064 388.292L292.779 384.922L286.064 381.557Z" fill="white"/>
<path id="path584" d="M296.753 388.677L293.548 387.068L290.341 388.677H286.825V390.438L293.548 393.807L300.264 390.438V388.677H296.753Z" fill="#D2D2D0"/>
<path id="path586" d="M293.548 385.311L286.825 388.677L293.548 392.045L300.264 388.677L293.548 385.311Z" fill="white"/>
<path id="path588" d="M304.239 392.428L301.029 390.823L297.823 392.428H294.308V394.189L301.029 397.56L307.745 394.189V392.428H304.239Z" fill="#D2D2D0"/>
<path id="path590" d="M301.029 389.061L294.308 392.428L301.029 395.795L307.745 392.428L301.029 389.061Z" fill="white"/>
<path id="path592" d="M196.096 345.393L192.889 343.788L189.68 345.393H186.168V347.152L192.889 350.525L199.608 347.152V345.393H196.096Z" fill="#D2D2D0"/>
<path id="path594" d="M192.889 342.025L186.168 345.393L192.889 348.764L199.608 345.393L192.889 342.025Z" fill="white"/>
<path id="path596" d="M203.575 349.143L200.369 347.536L197.163 349.143H193.648V350.902L200.369 354.27L207.084 350.902V349.143H203.575Z" fill="#D2D2D0"/>
<path id="path598" d="M200.369 345.775L193.648 349.143L200.369 352.513L207.084 349.143L200.369 345.775Z" fill="white"/>
<path id="path600" d="M211.056 352.891L207.849 351.279L204.644 352.891H201.131V354.653L207.849 358.021L214.568 354.653V352.891H211.056Z" fill="#D2D2D0"/>
<path id="path602" d="M207.849 349.525L201.131 352.891L207.849 356.26L214.568 352.891L207.849 349.525Z" fill="white"/>
<path id="path604" d="M218.539 356.644L215.333 355.036L212.128 356.644H208.613V358.405L215.333 361.771L222.051 358.405V356.644H218.539Z" fill="#D2D2D0"/>
<path id="path606" d="M215.333 353.276L208.613 356.644L215.333 360.012L222.051 356.644L215.333 353.276Z" fill="white"/>
<path id="path608" d="M226.023 360.398L222.816 358.787L219.608 360.398H216.097V362.156L222.816 365.526L229.533 362.156V360.398H226.023Z" fill="#D2D2D0"/>
<path id="path610" d="M222.816 357.029L216.097 360.398L222.816 363.765L229.533 360.398L222.816 357.029Z" fill="white"/>
<path id="path612" d="M233.505 364.148L230.297 362.544L227.092 364.148H223.58V365.909L230.297 369.279L237.017 365.909V364.148H233.505Z" fill="#D2D2D0"/>
<path id="path614" d="M230.297 360.781L223.58 364.148L230.297 367.515L237.017 364.148L230.297 360.781Z" fill="white"/>
<path id="path616" d="M240.991 367.899L237.781 366.29L234.575 367.899H231.061V369.657L237.781 373.026L244.499 369.657V367.899H240.991Z" fill="#D2D2D0"/>
<path id="path618" d="M237.781 364.53L231.061 367.899L237.781 371.266L244.499 367.899L237.781 364.53Z" fill="white"/>
<path id="path620" d="M248.472 371.649L245.265 370.041L242.057 371.649H238.547V373.408L245.265 376.775L251.984 373.408V371.649H248.472Z" fill="#D2D2D0"/>
<path id="path622" d="M245.265 368.28L238.547 371.649L245.265 375.016L251.984 371.649L245.265 368.28Z" fill="white"/>
<path id="path624" d="M255.953 375.401L252.751 373.793L249.541 375.401H246.031V377.161L252.751 380.53L259.468 377.161V375.401H255.953Z" fill="#D2D2D0"/>
<path id="path626" d="M252.751 372.035L246.031 375.401L252.751 378.769L259.468 375.401L252.751 372.035Z" fill="white"/>
<path id="path628" d="M263.439 379.155L260.231 377.548L257.027 379.155H253.513V380.917L260.231 384.286L266.949 380.917V379.155H263.439Z" fill="#D2D2D0"/>
<path id="path630" d="M260.231 375.788L253.513 379.155L260.231 382.524L266.949 379.155L260.231 375.788Z" fill="white"/>
<path id="path632" d="M270.921 382.905L267.716 381.298L264.509 382.905H260.996V384.666L267.716 388.033L274.433 384.666V382.905H270.921Z" fill="#D2D2D0"/>
<path id="path634" d="M267.716 379.535L260.996 382.905L267.716 386.27L274.433 382.905L267.716 379.535Z" fill="white"/>
<path id="path636" d="M278.404 386.656L275.196 385.046L271.992 386.656H268.48V388.415L275.196 391.786L281.919 388.415V386.656H278.404Z" fill="#D2D2D0"/>
<path id="path638" d="M275.196 383.288L268.48 386.656L275.196 390.024L281.919 386.656L275.196 383.288Z" fill="white"/>
<path id="path640" d="M285.887 390.41L282.684 388.799L279.473 390.41H275.963V392.171L282.684 395.539L289.399 392.171V390.41H285.887Z" fill="#D2D2D0"/>
<path id="path642" d="M282.684 387.042L275.963 390.41L282.684 393.777L289.399 390.41L282.684 387.042Z" fill="white"/>
<path id="path644" d="M300.584 397.778V396.017L283.444 394.159V395.923L293.864 401.146L300.584 397.778Z" fill="#D2D2D0"/>
<path id="path646" d="M300.584 396.017L290.164 390.796L283.444 394.159L293.864 399.388L300.584 396.017Z" fill="white"/>
<path id="path648" d="M195.828 352.66V350.899L178.948 349.176V350.933L189.108 356.026L195.828 352.66Z" fill="#D2D2D0"/>
<path id="path650" d="M195.828 350.899L185.667 345.81L178.948 349.176L189.108 354.262L195.828 350.899Z" fill="white"/>
<path id="path652" d="M199.796 354.649L196.589 353.042L193.385 354.649H189.872V356.409L196.589 359.78L203.308 356.409V354.649H199.796Z" fill="#D2D2D0"/>
<path id="path654" d="M196.589 351.279L189.872 354.649L196.589 358.016L203.308 354.649L196.589 351.279Z" fill="white"/>
<path id="path656" d="M207.277 358.402L204.073 356.792L200.864 358.402H197.355V360.157L204.073 363.526L210.789 360.157V358.402H207.277Z" fill="#D2D2D0"/>
<path id="path658" d="M204.073 355.029L197.355 358.402L204.073 361.764L210.789 358.402L204.073 355.029Z" fill="white"/>
<path id="path660" d="M214.763 362.15L211.553 360.537L208.348 362.15H204.836V363.909L211.553 367.28L218.272 363.909V362.15H214.763Z" fill="#D2D2D0"/>
<path id="path662" d="M211.553 358.783L204.836 362.15L211.553 365.518L218.272 362.15L211.553 358.783Z" fill="white"/>
<path id="path664" d="M222.244 365.905L219.039 364.295L215.832 365.905H212.319V367.664L219.039 371.033L225.756 367.664V365.905H222.244Z" fill="#D2D2D0"/>
<path id="path666" d="M219.039 362.539L212.319 365.905L219.039 369.271L225.756 365.905L219.039 362.539Z" fill="white"/>
<path id="path668" d="M229.729 369.652L226.521 368.046L223.313 369.652H219.804V371.416L226.521 374.782L233.239 371.416V369.652H229.729Z" fill="#D2D2D0"/>
<path id="path670" d="M226.521 366.287L219.804 369.652L226.521 373.023L233.239 369.652L226.521 366.287Z" fill="white"/>
<path id="path672" d="M237.211 373.402L234.003 371.793L230.797 373.402H227.287V375.164L234.003 378.527L240.723 375.164V373.402H237.211Z" fill="#D2D2D0"/>
<path id="path674" d="M234.003 370.037L227.287 373.402L234.003 376.773L240.723 373.402L234.003 370.037Z" fill="white"/>
<path id="path676" d="M244.695 377.153L241.485 375.547L238.279 377.153H234.767V378.912L241.485 382.283L248.204 378.912V377.153H244.695Z" fill="#D2D2D0"/>
<path id="path678" d="M241.485 373.783L234.767 377.153L241.485 380.523L248.204 377.153L241.485 373.783Z" fill="white"/>
<path id="path680" d="M252.175 380.908L248.972 379.3L245.763 380.908H242.249V382.669L248.972 386.036L255.689 382.669V380.908H252.175Z" fill="#D2D2D0"/>
<path id="path682" d="M248.972 377.536L242.249 380.908L248.972 384.276L255.689 380.908L248.972 377.536Z" fill="white"/>
<path id="path684" d="M259.66 384.661L256.452 383.056L253.248 384.661H249.735V386.424L256.452 389.789L263.172 386.424V384.661H259.66Z" fill="#D2D2D0"/>
<path id="path686" d="M256.452 381.29L249.735 384.661L256.452 388.031L263.172 384.661L256.452 381.29Z" fill="white"/>
<path id="path688" d="M267.143 388.409L263.936 386.801L260.729 388.409H257.217V390.174L263.936 393.537L270.652 390.174V388.409H267.143Z" fill="#D2D2D0"/>
<path id="path690" d="M263.936 385.04L257.217 388.409L263.936 391.783L270.652 388.409L263.936 385.04Z" fill="white"/>
<path id="path692" d="M274.625 392.163L271.419 390.556L268.212 392.163H264.7V393.92L271.419 397.29L278.137 393.92V392.163H274.625Z" fill="#D2D2D0"/>
<path id="path694" d="M271.419 388.792L264.7 392.163L271.419 395.532L278.137 392.163L271.419 388.792Z" fill="white"/>
<path id="path696" d="M282.109 395.915L278.905 394.309L275.696 395.915H272.187V397.672L278.905 401.044L285.619 397.672V395.915H282.109Z" fill="#D2D2D0"/>
<path id="path698" d="M278.905 392.545L272.187 395.915L278.905 399.285L285.619 395.915L278.905 392.545Z" fill="white"/>
<path id="path700" d="M190.595 357.316V355.561L171.688 352.814V354.575L183.876 360.686L190.595 357.316Z" fill="#D2D2D0"/>
<path id="path702" d="M190.595 355.561L178.407 349.449L171.688 352.814L183.876 358.925L190.595 355.561Z" fill="white"/>
<path id="path704" d="M194.568 359.306L191.361 357.698L188.155 359.306H184.641V361.069L191.361 364.435L198.077 361.069V359.306H194.568Z" fill="#D2D2D0"/>
<path id="path706" d="M191.361 355.943L184.641 359.306L191.361 362.676L198.077 359.306L191.361 355.943Z" fill="white"/>
<path id="path708" d="M202.049 363.056L198.841 361.449L195.636 363.056H192.123V364.816L198.841 368.185L205.563 364.816V363.056H202.049Z" fill="#D2D2D0"/>
<path id="path710" d="M198.841 359.689L192.123 363.056L198.841 366.425L205.563 363.056L198.841 359.689Z" fill="white"/>
<path id="path712" d="M209.531 366.804L206.327 365.198L203.119 366.804H199.608V368.567L206.327 371.935L213.043 368.567V366.804H209.531Z" fill="#D2D2D0"/>
<path id="path714" d="M206.327 363.439L199.608 366.804L206.327 370.176L213.043 366.804L206.327 363.439Z" fill="white"/>
<path id="path716" d="M217.016 370.561L213.808 368.954L210.603 370.561H207.089V372.324L213.808 375.687L220.527 372.324V370.561H217.016Z" fill="#D2D2D0"/>
<path id="path718" d="M213.808 367.193L207.089 370.561L213.808 373.933L220.527 370.561L213.808 367.193Z" fill="white"/>
<path id="path720" d="M224.5 374.312L221.291 372.705L218.087 374.312H214.573V376.071L221.291 379.442L228.011 376.071V374.312H224.5Z" fill="#D2D2D0"/>
<path id="path722" d="M221.291 370.944L214.573 374.312L221.291 377.681L228.011 374.312L221.291 370.944Z" fill="white"/>
<path id="path724" d="M231.983 378.06L228.775 376.453L225.568 378.06H222.057V379.823L228.775 383.189L235.492 379.823V378.06H231.983Z" fill="#D2D2D0"/>
<path id="path726" d="M228.775 374.694L222.057 378.06L228.775 381.429L235.492 378.06L228.775 374.694Z" fill="white"/>
<path id="path728" d="M239.465 381.81L236.26 380.207L233.051 381.81H229.537V383.573L236.26 386.943L242.973 383.573V381.81H239.465Z" fill="#D2D2D0"/>
<path id="path730" d="M236.26 378.446L229.537 381.81L236.26 385.179L242.973 381.81L236.26 378.446Z" fill="white"/>
<path id="path732" d="M246.948 385.567L243.741 383.961L240.535 385.567H237.021V387.328L243.741 390.696L250.457 387.328V385.567H246.948Z" fill="#D2D2D0"/>
<path id="path734" d="M243.741 382.196L237.021 385.567L243.741 388.934L250.457 385.567L243.741 382.196Z" fill="white"/>
<path id="path736" d="M254.431 389.321L251.224 387.714L248.019 389.321H244.505V391.08L251.224 394.448L257.941 391.08V389.321H254.431Z" fill="#D2D2D0"/>
<path id="path738" d="M251.224 385.95L244.505 389.321L251.224 392.688L257.941 389.321L251.224 385.95Z" fill="white"/>
<path id="path740" d="M261.913 393.069L258.708 391.467L255.5 393.069H251.988V394.834L258.708 398.2L265.425 394.834V393.069H261.913Z" fill="#D2D2D0"/>
<path id="path742" d="M258.708 389.705L251.988 393.069L258.708 396.442L265.425 393.069L258.708 389.705Z" fill="white"/>
<path id="path744" d="M269.399 396.826L266.191 395.219L262.985 396.826H259.473V398.587L266.191 401.954L272.908 398.587V396.826H269.399Z" fill="#D2D2D0"/>
<path id="path746" d="M266.191 393.459L259.473 396.826L266.191 400.195L272.908 396.826L266.191 393.459Z" fill="white"/>
<path id="path748" d="M293.104 401.427V399.667L279.127 401.704L266.953 400.573V402.334L279.127 408.441L293.104 401.427Z" fill="#D2D2D0"/>
<path id="path750" d="M293.104 399.667L286.385 396.299L279.127 399.938L273.671 397.204L266.953 400.573L279.127 406.676L293.104 399.667Z" fill="white"/>
<path id="path752" d="M179.633 359.044V357.281L164.488 356.427V358.185L172.913 362.409L179.633 359.044Z" fill="#D2D2D0"/>
<path id="path754" d="M179.633 357.281L171.205 353.056L164.488 356.427L172.913 360.651L179.633 357.281Z" fill="white"/>
<path id="path756" d="M183.624 361.043L180.419 359.433L177.211 361.043H173.699V362.806L180.419 366.172L187.136 362.806V361.043H183.624Z" fill="#D2D2D0"/>
<path id="path758" d="M180.419 357.674L173.699 361.043L180.419 364.413L187.136 361.043L180.419 357.674Z" fill="white"/>
<path id="path760" d="M191.107 364.788L187.897 363.181L184.693 364.788H181.18V366.554L187.897 369.922L194.616 366.554V364.788H191.107Z" fill="#D2D2D0"/>
<path id="path762" d="M187.897 361.427L181.18 364.788L187.897 368.158L194.616 364.788L187.897 361.427Z" fill="white"/>
<path id="path764" d="M198.587 368.539L195.383 366.933L192.176 368.539H188.663V370.303L195.383 373.671L202.1 370.303V368.539H198.587Z" fill="#D2D2D0"/>
<path id="path766" d="M195.383 365.174L188.663 368.539L195.383 371.911L202.1 368.539L195.383 365.174Z" fill="white"/>
<path id="path768" d="M206.071 372.296L202.865 370.687L199.657 372.296H196.147V374.055L202.865 377.424L209.583 374.055V372.296H206.071Z" fill="#D2D2D0"/>
<path id="path770" d="M202.865 368.929L196.147 372.296L202.865 375.663L209.583 372.296L202.865 368.929Z" fill="white"/>
<path id="path772" d="M213.555 376.046L210.348 374.439L207.141 376.046H203.629V377.805L210.348 381.178L217.067 377.805V376.046H213.555Z" fill="#D2D2D0"/>
<path id="path774" d="M210.348 372.68L203.629 376.046L210.348 379.414L217.067 376.046L210.348 372.68Z" fill="white"/>
<path id="path776" d="M221.039 379.796L217.832 378.187L214.624 379.796H211.111V381.557L217.832 384.922L224.548 381.557V379.796H221.039Z" fill="#D2D2D0"/>
<path id="path778" d="M217.832 376.432L211.111 379.796L217.832 383.166L224.548 379.796L217.832 376.432Z" fill="white"/>
<path id="path780" d="M228.521 383.546L225.316 381.941L222.108 383.546H218.595V385.307L225.316 388.674L232.033 385.307V383.546H228.521Z" fill="#D2D2D0"/>
<path id="path782" d="M225.316 380.177L218.595 383.546L225.316 386.914L232.033 383.546L225.316 380.177Z" fill="white"/>
<path id="path784" d="M236.003 387.301L232.795 385.692L229.589 387.301H226.079V389.061L232.795 392.428L239.515 389.061V387.301H236.003Z" fill="#D2D2D0"/>
<path id="path786" d="M232.795 383.931L226.079 387.301L232.795 390.671L239.515 387.301L232.795 383.931Z" fill="white"/>
<path id="path788" d="M243.509 391.064L240.304 389.458L237.095 391.064H233.581V392.825L240.304 396.195L247.019 392.825V391.064H243.509Z" fill="#D2D2D0"/>
<path id="path790" d="M240.304 387.694L233.581 391.064L240.304 394.433L247.019 391.064L240.304 387.694Z" fill="white"/>
<path id="path792" d="M250.992 394.816L247.784 393.206L244.579 394.816H241.065V396.577L247.784 399.941L254.5 396.577V394.816H250.992Z" fill="#D2D2D0"/>
<path id="path794" d="M247.784 391.449L241.065 394.816L247.784 398.184L254.5 394.816L247.784 391.449Z" fill="white"/>
<path id="path796" d="M258.476 398.567L255.268 396.962L252.061 398.567H248.549V400.328L255.268 403.703L261.987 400.328V398.567H258.476Z" fill="#D2D2D0"/>
<path id="path798" d="M255.268 395.202L248.549 398.567L255.268 401.937L261.987 398.567L255.268 395.202Z" fill="white"/>
<path id="path800" d="M278.639 408.679V406.916L256.012 402.308V404.068L271.921 412.049L278.639 408.679Z" fill="#D2D2D0"/>
<path id="path802" d="M278.639 406.916L262.732 398.939L256.012 402.308L271.921 410.286L278.639 406.916Z" fill="white"/>
<path id="path804" d="M157.272 360.045V361.802L167.705 367.034L174.424 363.663V361.908L157.272 360.045Z" fill="#D2D2D0"/>
<path id="path806" d="M163.991 356.676L157.272 360.045L167.705 365.27L174.424 361.908L163.991 356.676Z" fill="white"/>
<path id="path808" d="M168.483 365.66V367.422L176.944 371.665L183.664 368.294V366.54L168.483 365.66Z" fill="#D2D2D0"/>
<path id="path810" d="M175.201 362.298L168.483 365.66L176.944 369.904L183.664 366.54L175.201 362.298Z" fill="white"/>
<path id="path812" d="M177.708 370.289V372.047L188.189 377.301L194.908 373.933V372.171L177.708 370.289Z" fill="#D2D2D0"/>
<path id="path814" d="M184.428 366.921L177.708 370.289L188.189 375.539L194.908 372.171L184.428 366.921Z" fill="white"/>
<path id="path816" d="M188.953 375.924V377.686L233.087 399.812L239.808 396.445V394.684L188.953 375.924Z" fill="#D2D2D0"/>
<path id="path818" d="M195.671 372.559L188.953 375.924L233.087 398.05L239.808 394.684L195.671 372.559Z" fill="white"/>
<path id="path820" d="M233.853 398.435V400.195L243.633 405.097L250.355 401.732V399.967L233.853 398.435Z" fill="#D2D2D0"/>
<path id="path822" d="M240.569 395.067L233.853 398.435L243.633 403.337L250.355 399.967L240.569 395.067Z" fill="white"/>
<path id="path824" d="M244.445 403.745V405.504L253.023 409.806L259.74 406.438V404.676L244.445 403.745Z" fill="#D2D2D0"/>
<path id="path826" d="M251.163 400.378L244.445 403.745L253.023 408.046L259.74 404.676L251.163 400.378Z" fill="white"/>
<path id="path828" d="M253.747 408.411V410.167L264.708 415.663L271.431 412.295V410.536L253.747 408.411Z" fill="#D2D2D0"/>
<path id="path830" d="M260.465 405.038L253.747 408.411L264.708 413.902L271.431 410.536L260.465 405.038Z" fill="white"/>
<path id="path832" d="M312.548 396.595L309.344 394.989L306.139 396.595H302.624V398.359L309.344 401.725L316.063 398.359V396.595H312.548Z" fill="#D2D2D0"/>
<path id="path834" d="M309.344 393.223L302.624 396.595L309.344 399.961L316.063 396.595L309.344 393.223Z" fill="white"/>
<path id="path836" d="M305.388 400.186L302.184 398.579L298.976 400.186H295.465V401.949L302.184 405.315L308.905 401.949V400.186H305.388Z" fill="#D2D2D0"/>
<path id="path838" d="M302.184 396.817L295.465 400.186L302.184 403.559L308.905 400.186L302.184 396.817Z" fill="white"/>
<path id="path840" d="M298.013 403.889L294.805 402.282L291.596 403.889H288.087V405.647L294.805 409.015L301.523 405.647V403.889H298.013Z" fill="#D2D2D0"/>
<path id="path842" d="M294.805 400.519L288.087 403.889L294.805 407.257L301.523 403.889L294.805 400.519Z" fill="white"/>
<path id="path844" d="M320.033 400.346L316.823 398.74L313.617 400.346H310.112V402.104L316.823 405.477L323.545 402.104V400.346H320.033Z" fill="#D2D2D0"/>
<path id="path846" d="M316.823 396.979L310.112 400.346L316.823 403.716L323.545 400.346L316.823 396.979Z" fill="white"/>
<path id="path848" d="M312.873 403.941L309.664 402.334L306.459 403.941H302.947V405.698L309.664 409.068L316.383 405.698V403.941H312.873Z" fill="#D2D2D0"/>
<path id="path850" d="M309.664 400.568L302.947 403.941L309.664 407.304L316.383 403.941L309.664 400.568Z" fill="white"/>
<path id="path852" d="M305.493 407.637L302.285 406.029L299.08 407.637H295.568V409.402L302.285 412.767L309.003 409.402V407.637H305.493Z" fill="#D2D2D0"/>
<path id="path854" d="M302.285 404.27L295.568 407.637L302.285 411.008L309.003 407.637L302.285 404.27Z" fill="white"/>
<path id="path856" d="M327.512 404.095L324.308 402.489L321.101 404.095H317.585V405.861L324.308 409.225L331.027 405.861V404.095H327.512Z" fill="#D2D2D0"/>
<path id="path858" d="M324.308 400.729L317.585 404.095L324.308 407.468L331.027 404.095L324.308 400.729Z" fill="white"/>
<path id="path860" d="M320.355 407.691L317.148 406.083L313.937 407.691H310.425V409.452L317.148 412.82L323.865 409.452V407.691H320.355Z" fill="#D2D2D0"/>
<path id="path862" d="M317.148 404.325L310.425 407.691L317.148 411.057L323.865 407.691L317.148 404.325Z" fill="white"/>
<path id="path864" d="M312.976 411.392L309.768 409.784L306.563 411.392H303.051V413.149L309.768 416.52L316.487 413.149V411.392H312.976Z" fill="#D2D2D0"/>
<path id="path866" d="M309.768 408.02L303.051 411.392L309.768 414.755L316.487 411.392L309.768 408.02Z" fill="white"/>
<path id="path868" d="M276.333 414.755L273.124 413.149L269.917 414.755H266.404V416.518L273.124 419.887L279.843 416.518V414.755H276.333Z" fill="#D2D2D0"/>
<path id="path870" d="M273.124 411.385L266.404 414.755L273.124 418.121L279.843 414.755L273.124 411.385Z" fill="white"/>
<path id="path872" d="M291.029 414.888L287.823 413.284L284.615 414.888H281.104V416.646L287.823 420.017L294.54 416.646V414.888H291.029Z" fill="#D2D2D0"/>
<path id="path874" d="M287.823 411.522L281.104 414.888L287.823 418.254L294.54 414.888L287.823 411.522Z" fill="white"/>
<path id="path876" d="M283.812 418.508L280.607 416.9L277.401 418.508H273.888V420.265L280.607 423.636L287.325 420.265V418.508H283.812Z" fill="#D2D2D0"/>
<path id="path878" d="M280.607 415.138L273.888 418.508L280.607 421.874L287.325 418.508L280.607 415.138Z" fill="white"/>
<path id="path880" d="M291.296 422.256L288.089 420.646L284.883 422.256H281.369V424.019L288.089 427.387L294.809 424.019V422.256H291.296Z" fill="#D2D2D0"/>
<path id="path882" d="M288.089 418.891L281.369 422.256L288.089 425.624L294.809 422.256L288.089 418.891Z" fill="white"/>
<path id="path884" d="M336.287 408.495L333.083 406.887L329.873 408.495H326.361V410.26L333.083 413.627L339.799 410.26V408.495H336.287Z" fill="#D2D2D0"/>
<path id="path886" d="M333.083 405.131L326.361 408.495L333.083 411.867L339.799 408.495L333.083 405.131Z" fill="white"/>
<path id="path888" d="M329.124 412.093L325.923 410.482L322.713 412.093H319.2V413.85L325.923 417.22L332.639 413.85V412.093H329.124Z" fill="#D2D2D0"/>
<path id="path890" d="M325.923 408.722L319.2 412.093L325.923 415.46L332.639 412.093L325.923 408.722Z" fill="white"/>
<path id="path892" d="M321.748 415.791L318.539 414.181L315.333 415.791H311.825V417.549L318.539 420.921L325.257 417.549V415.791H321.748Z" fill="#D2D2D0"/>
<path id="path894" d="M318.539 412.419L311.825 415.791L318.539 419.156L325.257 415.791L318.539 412.419Z" fill="white"/>
<path id="path896" d="M314.367 419.487L311.164 417.88L307.953 419.487H304.443V421.252L311.164 424.617L317.88 421.252V419.487H314.367Z" fill="#D2D2D0"/>
<path id="path898" d="M311.164 416.125L304.443 419.487L311.164 422.861L317.88 419.487L311.164 416.125Z" fill="white"/>
<path id="path900" d="M307.136 423.112L303.929 421.505L300.721 423.112H297.213V424.879L303.929 428.242L310.645 424.879V423.112H307.136Z" fill="#D2D2D0"/>
<path id="path902" d="M303.929 419.75L297.213 423.112L303.929 426.485L310.645 423.112L303.929 419.75Z" fill="white"/>
<path id="path904" d="M343.767 412.246L340.563 410.641L337.355 412.246H333.843V414.005L340.563 417.377L347.279 414.005V412.246H343.767Z" fill="#D2D2D0"/>
<path id="path906" d="M340.563 408.876L333.843 412.246L340.563 415.615L347.279 412.246L340.563 408.876Z" fill="white"/>
<path id="path908" d="M336.609 415.839L333.404 414.233L330.195 415.839H326.684V417.597L333.404 420.97L340.121 417.597V415.839H336.609Z" fill="#D2D2D0"/>
<path id="path910" d="M333.404 412.469L326.684 415.839L333.404 419.203L340.121 415.839L333.404 412.469Z" fill="white"/>
<path id="path912" d="M329.229 419.539L326.023 417.931L322.815 419.539H319.305V421.301L326.023 424.665L332.739 421.301V419.539H329.229Z" fill="#D2D2D0"/>
<path id="path914" d="M326.023 416.168L319.305 419.539L326.023 422.905L332.739 419.539L326.023 416.168Z" fill="white"/>
<path id="path916" d="M321.852 423.24L318.645 421.628L315.433 423.24H311.927V424.998L318.645 428.366L325.361 424.998V423.24H321.852Z" fill="#D2D2D0"/>
<path id="path918" d="M318.645 419.871L311.927 423.24L318.645 426.605L325.361 423.24L318.645 419.871Z" fill="white"/>
<path id="path920" d="M314.617 426.866L311.412 425.255L308.203 426.866H304.693V428.623L311.412 431.991L318.128 428.623V426.866H314.617Z" fill="#D2D2D0"/>
<path id="path922" d="M311.412 423.497L304.693 426.866L311.412 430.23L318.128 426.866L311.412 423.497Z" fill="white"/>
<path id="path924" d="M305.593 429.424L296.849 425.041L292.715 427.108L290.128 426.648V428.405L304.344 435.533L311.06 432.166V430.406L305.593 429.424Z" fill="#D2D2D0"/>
<path id="path926" d="M296.849 423.276L290.128 426.648L304.344 433.776L311.06 430.406L296.849 423.276Z" fill="white"/>
<path id="path928" d="M351.251 415.996L348.043 414.387L344.837 415.996H341.328V417.758L348.043 421.125L354.759 417.758V415.996H351.251Z" fill="#D2D2D0"/>
<path id="path930" d="M348.043 412.628L341.328 415.997L348.043 419.366L354.759 415.997L348.043 412.628Z" fill="white"/>
<path id="path932" d="M344.088 419.591L340.881 417.982L337.677 419.591H334.165V421.35L340.881 424.718L347.6 421.35V419.591H344.088Z" fill="#D2D2D0"/>
<path id="path934" d="M340.881 416.223L334.165 419.591L340.881 422.958L347.6 419.591L340.881 416.223Z" fill="white"/>
<path id="path936" d="M336.712 423.291L333.504 421.684L330.297 423.291H326.788V425.047L333.504 428.419L340.221 425.047V423.291H336.712Z" fill="#D2D2D0"/>
<path id="path938" d="M333.504 419.919L326.788 423.291L333.504 426.655L340.221 423.291L333.504 419.919Z" fill="white"/>
<path id="path940" d="M329.329 426.989L326.125 425.378L322.917 426.989H319.405V428.751L326.125 432.116L332.841 428.751V426.989H329.329Z" fill="#D2D2D0"/>
<path id="path942" d="M326.125 423.621L319.405 426.989L326.125 430.354L332.841 426.989L326.125 423.621Z" fill="white"/>
<path id="path944" d="M322.099 430.616L318.892 429.007L315.685 430.616H312.169V432.378L318.892 435.742L325.608 432.378V430.616H322.099Z" fill="#D2D2D0"/>
<path id="path946" d="M318.892 427.25L312.169 430.616L318.892 433.985L325.608 430.616L318.892 427.25Z" fill="white"/>
<path id="path948" d="M315.032 434.155L311.828 432.549L308.617 434.155H305.105V435.921L311.828 439.283L318.539 435.921V434.155H315.032Z" fill="#D2D2D0"/>
<path id="path950" d="M311.828 430.792L305.105 434.155L311.828 437.529L318.539 434.155L311.828 430.792Z" fill="white"/>
<path id="path952" d="M330.48 434.818L326.373 432.759L317.949 436.98L312.588 437.909V439.668L319.307 443.036L333.091 436.129V434.369L330.48 434.818Z" fill="#D2D2D0"/>
<path id="path954" d="M358.731 419.75L355.527 418.142L352.32 419.75H348.805V421.512L355.527 424.879L362.241 421.512V419.75H358.731Z" fill="#D2D2D0"/>
<path id="path956" d="M355.527 416.385L348.805 419.75L355.527 423.123L362.241 419.75L355.527 416.385Z" fill="white"/>
<path id="path958" d="M351.576 423.342L348.364 421.733L345.159 423.342H341.645V425.101L348.364 428.468L355.084 425.101V423.342H351.576Z" fill="#D2D2D0"/>
<path id="path960" d="M348.364 419.971L341.645 423.342L348.364 426.712L355.084 423.342L348.364 419.971Z" fill="white"/>
<path id="path962" d="M344.193 427.043L340.987 425.434L337.78 427.043H334.265V428.802L340.987 432.17L347.701 428.802V427.043H344.193Z" fill="#D2D2D0"/>
<path id="path964" d="M340.987 423.675L334.265 427.043L340.987 430.409L347.701 427.043L340.987 423.675Z" fill="white"/>
<path id="path966" d="M336.815 430.742L333.605 429.132L330.4 430.742H326.888V432.5L333.605 435.871L340.324 432.5V430.742H336.815Z" fill="#D2D2D0"/>
<path id="path968" d="M333.605 427.373L326.888 430.742L333.605 434.107L340.324 430.742L333.605 427.373Z" fill="white"/>
<path id="path970" d="M312.588 437.909L319.307 441.274L333.091 434.369L326.373 430.997L312.588 437.909Z" fill="white"/>
<path id="path972" d="M391.787 460.843L371.34 450.592L410.128 431.146L430.577 441.398L391.787 460.843Z" fill="#28333D"/>
<path id="path974" d="M403.743 431.731L408.884 435.145L420.711 432.055L416.068 429.257L403.743 431.731Z" fill="#614F49"/>
<path id="path976" d="M421.983 431.384L410.128 425.443L396.984 427.747L405.58 432.057L414.175 430.547L419.923 433.428L421.983 431.384Z" fill="#F9F5E9"/>
<path id="path978" d="M399.264 427.078L399.037 427.84L406.343 431.503L408.977 429.81L399.264 427.078Z" fill="#E8E2DC"/>
<path id="path980" d="M399.264 427.078L406.565 430.739L410.416 430.46L417.153 428.892L409.852 425.231L399.264 427.078Z" fill="white"/>
<path id="path982" d="M406.565 430.739L406.343 431.503L416.931 429.645L417.153 428.892L406.565 430.739Z" fill="#D2D2D0"/>
<path id="path984" d="M408.484 435.308L410.921 431.643L414.367 429.916L416.804 431.139V434.593L414.367 438.257L410.921 439.985L408.484 438.767V435.308Z" fill="#971D1F"/>
<path id="path986" d="M410.921 431.643L414.367 429.916L412.329 428.892L408.884 430.621L410.463 431.693L410.921 431.643Z" fill="#DF4047"/>
<path id="path988" d="M408.484 435.308L410.921 431.643L408.884 430.621L406.443 434.285L408.048 435.477L408.484 435.308Z" fill="#C9322B"/>
<path id="path990" d="M408.484 438.767V435.308L406.443 434.285L406.444 437.744L408.484 438.767Z" fill="#BF2224"/>
<path id="path992" d="M421.983 431.384L408.84 433.69L417.432 437.996L430.577 435.694L421.983 431.384Z" fill="#F9F5E9"/>
<path id="path994" d="M430.577 435.694L417.432 437.996L396.059 448.713L391.787 455.137V459.776L396.056 458.701L430.577 441.398V435.694Z" fill="#D2D2D0"/>
<path id="path996" d="M410.996 432.958L410.771 433.722L418.076 437.382L420.711 435.694L410.996 432.958Z" fill="#E8E2DC"/>
<path id="path998" d="M410.996 432.958L418.299 436.62L422.148 436.339L428.887 434.775L421.583 431.114L410.996 432.958Z" fill="white"/>
<path id="path1000" d="M418.299 436.62L418.076 437.382L428.664 435.526L428.887 434.775L418.299 436.62Z" fill="#D2D2D0"/>
<path id="path1002" d="M391.787 455.137L371.34 444.887L375.612 438.465L396.059 448.713L391.787 455.137Z" fill="#F9F5E9"/>
<path id="path1004" d="M396.059 448.713L375.612 438.465L396.984 427.747L417.432 437.996L396.059 448.713Z" fill="white"/>
<path id="path1006" d="M391.787 459.776L371.34 449.524V444.887L391.787 455.137V459.776Z" fill="#E8E2DC"/>
<path id="path1008" d="M394.837 443.27V442.418L388.315 439.15H386.611L385.408 439.752V440.607L391.927 443.877H393.631L394.837 443.27Z" fill="#D9D1C3"/>
<path id="path1010" d="M487.725 211.446L483.688 216.944L460.888 218.005L433.797 204.475L410.92 179.449L397.665 148.912V123.222L410.92 105.738L417.257 106.026L487.725 211.446Z" fill="#9F988F"/>
<path id="path1012" d="M497.997 196.569V171.059L485.273 142.593L463.248 118.796L437.792 106.026L415.765 107.744L403.059 123.459V148.971L415.765 177.438L437.792 201.228L463.248 213.995L485.273 212.286L497.997 196.569Z" fill="white"/>
<path id="path1014" d="M483.838 149.006L462.226 124.833L449.489 118.168L448.668 165.762L495.849 190.442L496.069 177.687L483.838 149.006Z" fill="#DF4047"/>
<path id="path1016" d="M452.161 124.512L450.515 125.34L447.24 116.863L448.877 116.057L452.161 117.707V124.512Z" fill="#141111"/>
<path id="path1018" d="M452.161 203.974L450.515 204.77L447.24 196.307L448.877 195.49L452.161 197.136V203.974Z" fill="#141111"/>
<path id="path1020" d="M485.08 177.331L486.707 176.528L493.503 179.938L493.552 183.22L491.916 184.022L485.08 177.331Z" fill="#141111"/>
<path id="path1022" d="M405.849 137.625L407.485 136.811L414.305 140.233V143.492L412.688 144.302L405.849 137.625Z" fill="#141111"/>
<path id="path1024" d="M474.971 199.102L477.251 197.942L482.076 205.193L479.787 206.346L474.971 199.102Z" fill="#141111"/>
<path id="path1026" d="M418.972 114.837L421.252 113.688L426.079 120.929L423.755 122.089L418.972 114.837Z" fill="#141111"/>
<path id="path1028" d="M477.251 148.912L474.971 145.435L479.787 143.016L482.076 146.479L477.251 148.912Z" fill="#141111"/>
<path id="path1030" d="M421.252 176.988L418.972 173.523L423.755 171.125L426.079 174.58L421.252 176.988Z" fill="#141111"/>
<path id="path1032" d="M450.515 125.34L447.24 123.705V116.863L450.515 118.513V125.34Z" fill="#50413C"/>
<path id="path1034" d="M450.515 204.77L447.24 203.126V196.307L450.515 197.942V204.77Z" fill="#50413C"/>
<path id="path1036" d="M485.08 180.612V177.331L491.916 180.734V184.022L485.08 180.612Z" fill="#50413C"/>
<path id="path1038" d="M405.849 140.884V137.625L412.688 141.036V144.302L405.849 140.884Z" fill="#50413C"/>
<path id="path1040" d="M473.323 199.909L475.664 198.756L480.447 206L478.149 207.134L473.323 199.909Z" fill="#50413C"/>
<path id="path1042" d="M417.308 115.651L419.615 114.502L424.449 121.742L422.127 122.891L417.308 115.651Z" fill="#50413C"/>
<path id="path1044" d="M475.664 149.719L473.323 146.246L478.149 143.819L480.447 147.311L475.664 149.719Z" fill="#50413C"/>
<path id="path1046" d="M419.615 177.802L417.308 174.326L422.127 171.895L424.449 175.401L419.615 177.802Z" fill="#50413C"/>
<path id="path1048" d="M486.081 142.178L461.823 115.979L433.797 101.918L409.529 103.808L395.551 121.101V149.208L409.529 180.553L433.797 206.76L461.823 220.8L486.081 218.934L500.101 201.632V173.538L486.081 142.178ZM495.275 197.92L482.569 213.638L460.551 215.339L435.087 202.589L413.068 178.793L400.344 150.312V124.813L413.068 109.1L435.087 107.403L460.551 120.14L482.569 143.944L495.275 172.412V197.92Z" fill="#D9D1C3"/>
<path id="path1050" d="M512.9 195.188L500.101 201.632V173.538L512.9 167.115V195.188Z" fill="#9F988F"/>
<path id="path1052" d="M498.904 212.503L486.081 218.934L500.101 201.632L512.9 195.188L498.904 212.503Z" fill="#817C77"/>
<path id="path1054" d="M474.629 109.549L461.823 115.979L433.797 101.918L446.604 95.5075L474.629 109.549Z" fill="#E8E2DC"/>
<path id="path1056" d="M498.904 135.739L486.081 142.178L461.823 115.979L474.629 109.549L498.904 135.739Z" fill="#C1BCB7"/>
<path id="path1058" d="M446.604 95.5075L433.797 101.918L409.529 103.808L422.381 97.3959L446.604 95.5075Z" fill="#C1BCB7"/>
<path id="path1060" d="M512.9 167.115L500.101 173.538L486.081 142.178L498.904 135.739L512.9 167.115Z" fill="#B2ACA1"/>
<path id="path1062" d="M178.151 420.966L153.365 420.915L135.86 412.087L135.872 405.519L135.913 393.085L136.753 392.666L133.025 390.786L131.875 391.363L129.256 390.04L88.3511 369.404L88.3672 365.692L90.9979 361.759L94.7052 359.909L135.611 380.541L138.231 381.857L138.227 383.009L146.112 386.987L145.031 387.527L142.876 390.747L142.875 391.483L141.845 392.406L141.867 395.881L139.753 403.122L156.009 411.319L175.539 411.362L191.539 403.35L190.415 398.809L193.107 400.166L193.431 392.401L175.616 385.611L175.611 387.731L175.616 385.611L164.235 384.359L178.253 384.392L195.756 393.224L195.72 405.648L195.712 412.213L178.151 420.966ZM150.208 387.628L150.209 387.094L149.076 386.523L153.465 384.335L163.757 384.358L156.299 385.534L156.336 384.641L150.208 387.628Z" fill="#28333D"/>
<path id="path1064" d="M129.269 384.361L131.907 380.429L135.611 378.582L138.231 379.897L138.216 383.612L135.581 387.55L131.875 389.402L129.256 388.08L129.269 384.361Z" fill="#971D1F"/>
<path id="path1066" d="M131.907 380.429L135.611 378.582L94.7052 357.95L90.9979 359.799L131.409 380.481L131.907 380.429Z" fill="#DF4047"/>
<path id="path1068" d="M129.269 384.361L131.907 380.429L90.9979 359.799L88.3672 363.73L128.796 384.54L129.269 384.361Z" fill="#C9322B"/>
<path id="path1070" d="M129.256 388.08L129.269 384.362L88.3672 363.73L88.3511 367.444L129.256 388.08Z" fill="#BF2224"/>
<path id="path1072" d="M142.876 390.747L145.031 387.527L148.067 386.014L150.209 387.094L150.203 390.13L148.051 393.354L145.013 394.864L142.871 393.789L142.876 390.747Z" fill="white"/>
<path id="path1074" d="M146.764 388.646L148.067 386.014L135.501 379.674L132.458 381.187L144.629 387.572L146.764 388.646Z" fill="white"/>
<path id="path1076" d="M142.876 390.747L145.031 387.527L132.458 381.187L130.308 384.409L142.493 390.893L142.876 390.747Z" fill="#F6F2EB"/>
<path id="path1078" d="M142.871 393.789L142.876 390.747L130.308 384.409L130.296 387.45L142.871 393.789Z" fill="#D2D2D0"/>
<path id="path1080" d="M143.564 390.866L156.336 384.641L156.056 391.345L141.883 398.415L141.845 392.406L143.564 390.866Z" fill="#971D1F"/>
<path id="path1082" d="M163.949 384.328L175.616 385.611L175.601 391.343L156.056 391.345L156.085 385.568L163.949 384.328Z" fill="#BF2224"/>
<path id="path1084" d="M175.616 385.611L193.431 392.401L193.107 400.166L175.601 391.343L175.616 385.611Z" fill="#C9322B"/>
<path id="path1086" d="M175.544 411.204L156.015 411.164L142.229 404.209L142.241 400.195L156.056 393.306L175.601 393.302L189.383 400.25L189.372 404.311L175.544 411.204Z" fill="#5C91A1"/>
<path id="path1088" d="M175.539 411.362L156.009 411.319L139.753 403.122L141.867 395.881L141.883 398.415L156.056 391.345L175.601 391.343L175.604 390.259L175.601 391.343L190.415 398.809L191.539 403.35L175.539 411.362ZM175.601 393.302L156.056 393.306L142.241 400.195L142.229 404.209L156.015 411.164L175.544 411.204L189.372 404.311L189.383 400.25L175.601 393.302Z" fill="#538494"/>
<path id="path1090" d="M141.883 398.415L141.867 395.881L142.248 394.575L142.237 397.104L156.061 390.212L156.056 391.345L141.883 398.415Z" fill="#867179"/>
<path id="path1092" d="M156.056 391.345L156.061 390.212L156.063 390.211L175.595 390.255L175.604 390.259L175.601 391.343L156.056 391.345Z" fill="#99727B"/>
<path id="path1094" d="M190.415 398.809L175.601 391.343L175.604 390.259L189.376 397.205L189.392 394.678L190.415 398.809Z" fill="#9F8286"/>
<path id="path1096" d="M142.237 397.104L142.248 394.575L156.075 387.685L156.061 390.212L142.237 397.104Z" fill="#788BA4"/>
<path id="path1098" d="M175.604 390.259L175.595 390.255L156.063 390.211L156.061 390.212L156.075 387.685L156.081 387.682L175.611 387.731L175.604 390.259Z" fill="#818CA4"/>
<path id="path1100" d="M189.376 397.205L175.604 390.259L175.611 387.731L189.392 394.678L189.376 397.205Z" fill="#8392A9"/>
<path id="path1102" d="M142.229 402.25L142.257 392.458L156.085 385.568L175.616 385.612L189.399 392.563L189.372 402.352L175.544 409.243L156.015 409.203L142.229 402.25ZM178.163 412.435L195.72 403.689L195.756 391.264L178.253 382.429L153.465 382.372L135.913 391.125L135.872 403.56L153.377 412.38L178.163 412.435Z" fill="#DF4047"/>
<path id="path1104" d="M178.163 412.435L195.72 403.689L195.712 410.254L178.151 419.007L176.699 414.088L178.163 412.435Z" fill="#971D1F"/>
<path id="path1106" d="M153.377 412.38L178.163 412.435L178.151 419.007L153.365 418.951L151.332 413.631L153.377 412.38Z" fill="#BF2224"/>
<path id="path1108" d="M135.872 403.56L153.377 412.38L153.365 418.951L135.86 410.126L135.872 403.56Z" fill="#C9322B"/>
<path id="path1110" d="M159.888 346.126H156.781L123.067 329.214V327.664L141.06 318.636H144.168L177.887 335.541V337.099L159.888 346.126Z" fill="#21384D"/>
<path id="path1112" d="M177.576 336.857L159.776 345.775L159.308 344.47L177.576 336.074V336.857Z" fill="#A8461F"/>
<path id="path1114" d="M159.776 345.775H156.707L156.1 344.003L159.776 344.418V345.775Z" fill="#D65C1D"/>
<path id="path1116" d="M156.707 345.775L123.368 329.066V328.289L156.947 344.557L156.707 344.991V345.775Z" fill="#F57F19"/>
<path id="path1118" d="M177.576 334.534L144.236 317.825H141.175L123.368 326.746V328.289L156.707 344.991H159.776L177.576 336.074V334.534Z" fill="#F8A53C"/>
<path id="path1120" d="M145.901 324.513L141.156 322.138H139.661L136.675 323.631V324.389L141.423 326.762H142.92L145.901 325.265V324.513Z" fill="#F6EC5A"/>
<path id="path1122" d="M138.911 328.053L133.568 325.376H133.209L132.497 325.73L132.492 325.912L137.844 328.587H138.199L138.911 328.23V328.053Z" fill="#E8E2DC"/>
<path id="path1124" d="M142.053 334.368L128.834 327.745H128.487L127.771 328.106V328.281L140.977 334.905H141.339L142.053 334.55V334.368Z" fill="#E8E2DC"/>
<path id="path1126" d="M146.777 331.999L141.436 329.325H141.081L140.369 329.676V329.857L145.707 332.532H146.067L146.777 332.177V331.999Z" fill="#E8E2DC"/>
<path id="path1128" d="M134.289 328.377L130.871 326.661H130.643L130.178 326.886V327.004L133.599 328.716H133.839L134.284 328.489L134.289 328.377Z" fill="#E8E2DC"/>
<path id="path1130" d="M139.016 330.746L135.593 329.028H135.36L134.915 329.255V329.374L138.325 331.088H138.553L139.016 330.855V330.746Z" fill="#E8E2DC"/>
<path id="path1132" d="M154.645 335.939L149.3 333.266H148.945L148.232 333.617V333.799L153.579 336.475H153.933L154.645 336.123V335.939Z" fill="#E8E2DC"/>
<path id="path1134" d="M162.509 339.888L157.172 337.209H156.813L156.1 337.565V337.742L161.439 340.423H161.8L162.509 340.065V339.888Z" fill="#E8E2DC"/>
<path id="path1136" d="M169.475 332.334L167.863 331.527H165.579L163.976 332.334V333.479L165.579 334.29H167.863L169.475 333.479V332.334Z" fill="#DF4047"/>
<path id="path1138" d="M172.557 333.887L170.944 333.077H168.668L167.059 333.887V335.026L168.668 335.834H170.944L172.557 335.026V333.887Z" fill="#F6EC5A"/>
<path id="path1140" d="M267.172 471.13H244.996L229.307 463.264V452.141L244.996 444.279H267.172L282.855 452.141V463.264L267.172 471.13Z" fill="#28333D"/>
<path id="path1142" d="M282.057 418.972V408.184L266.84 400.55H245.323L230.107 408.184V418.972L245.323 426.6H266.84L282.057 418.972Z" fill="white"/>
<path id="path1144" d="M265.229 402.482L278.225 408.991V418.198L276.324 419.159L265.229 413.593L260.752 407.344L265.229 402.482Z" fill="#F6F2EB"/>
<path id="path1146" d="M265.229 413.593H246.851L244.299 408.693L246.851 402.482H265.229V413.593Z" fill="#D9D1C3"/>
<path id="path1148" d="M246.851 413.593L235.761 419.159L233.855 418.198V408.991L246.851 402.482V413.593Z" fill="#9F988F"/>
<path id="coffe" d="M276.324 419.159L269.111 422.77L262.611 424.366L248.815 424.108L242.971 422.77L235.761 419.159L246.851 413.593H265.229L276.324 419.159Z" fill="#8D2614"/>
<path id="path1152" d="M264.12 420.95L263.589 421.211H262.836L262.312 420.95V420.578L262.836 420.313H263.589L264.12 420.578V420.95ZM262.193 419.405L262.515 419.243H262.975L263.307 419.405V419.637L262.975 419.799L262.515 419.8L262.193 419.637V419.405ZM261.809 423.038L261.127 423.383H260.165L259.48 423.038V422.558L260.165 422.214H261.127L261.809 422.558V423.038ZM257.764 420.89V420.177L258.768 419.672H260.191L261.211 420.177V420.89L260.191 421.398H258.768L257.764 420.89ZM258.256 423.213L257.431 423.624H256.269L255.443 423.213V422.624L256.269 422.214H257.431L258.256 422.624V423.213ZM254.175 421.932L253.648 421.672V421.295L254.175 421.032H254.917L255.443 421.295V421.672L254.917 421.932H254.175ZM253.524 422.721L253.197 422.887H252.731L252.407 422.721V422.492L252.731 422.324H253.197L253.524 422.492V422.721ZM250.319 421.174L249.313 420.672V419.956L250.319 419.449H251.748L252.753 419.956V420.672L251.748 421.174H250.319ZM251.245 422.072L250.844 422.275H250.285L249.892 422.072V421.793L250.285 421.594H250.844L251.245 421.793V422.072ZM249.34 422.339L248.815 422.604H248.071L247.541 422.339V421.966L248.071 421.704H248.815L249.34 421.966V422.339ZM247.328 420.919L247.649 420.753H248.117L248.445 420.919V421.146L248.117 421.313H247.649L247.328 421.146V420.919ZM252.971 419.264L253.491 418.996H254.235L254.769 419.264V419.632L254.235 419.899H253.491L252.971 419.632V419.264ZM255.664 419.96L255.992 419.8H256.452L256.785 419.96V420.193L256.452 420.358H255.992L255.664 420.193V419.96ZM261.457 417.962H250.631L242.971 421.803V422.77L246.851 424.714H265.229L269.111 422.77V421.803L261.457 417.962Z" fill="#EEBF77"/>
<path id="path1154" d="M266.84 469.933H245.323V426.6H266.84V469.933Z" fill="#D9D1C3"/>
<path id="path1156" d="M245.323 469.933L230.107 462.299V418.972L245.323 426.6V469.933Z" fill="#F6F2EB"/>
<path id="path1158" d="M266.84 469.933L282.057 462.299V418.972L266.84 426.6V469.933Z" fill="#9F988F"/>
<path id="path1160" d="M266.84 460.827H245.323V455.898H266.84V460.827Z" fill="#305D7F"/>
<path id="path1162" d="M245.323 460.827L230.107 453.2V448.266L245.323 455.898V460.827Z" fill="#4D8FBD"/>
<path id="path1164" d="M266.84 460.827L282.057 453.2V448.266L266.84 455.898V460.827Z" fill="#213F5A"/>
<path id="path1166" d="M233.699 430.794L227.793 427.835L234.471 424.52L240.373 427.481L235.797 430.794H233.699Z" fill="white"/>
<path id="path1168" d="M223.049 446.813L217.144 443.854L227.793 427.835L233.699 430.794L229.055 440.195L223.049 446.813Z" fill="#F6F2EB"/>
<path id="path1170" d="M223.049 461.918L217.144 458.958V443.854L223.049 446.813L224.552 454.87L223.049 461.918Z" fill="#D9D1C3"/>
<path id="path1172" d="M233.699 463.388L227.793 460.428L234.471 457.114L240.373 460.077L235.797 463.388H233.699Z" fill="white"/>
<path id="path1174" d="M240.373 460.077L235.3 462.584L226.912 458.381V446.48L235.3 433.866L240.373 431.35V427.481L233.699 430.794L223.049 446.813V461.918L233.699 467.261L240.373 463.945V460.077Z" fill="#9F988F"/>
<path id="path1176" d="M395.957 411.049L394.676 410.407L392.16 409.154L391.796 409.2L390.399 408.505L320.1 373.316L312.167 366.474L325.917 370.392L396.221 405.579L397.613 406.277L397.512 406.463L400.029 407.72L401.305 408.361L400.651 409.605L398.429 410.718L395.957 411.049Z" fill="#28333D"/>
<path id="path1178" d="M315.319 365.276L315.909 364.683L312.167 363.835L315.319 365.276Z" fill="#7D6563"/>
<path id="path1180" d="M314.903 366.195L315.221 365.453L312.167 363.835L314.903 366.195Z" fill="#392E2B"/>
<path id="path1182" d="M314.903 365.605H315.247L315.319 364.979L312.167 363.835L314.903 365.605Z" fill="#614F49"/>
<path id="path1184" d="M321.296 371.736L324.573 369.584L324.661 366.68L321.161 366.17L315.319 364.979L314.903 365.605L319.307 369.017L321.296 371.736Z" fill="#EEBF77"/>
<path id="path1186" d="M321.296 371.736V369.762L314.903 365.605V366.195L321.296 371.736Z" fill="#C39749"/>
<path id="path1188" d="M322.691 367.664L324.661 366.68L315.909 364.683L315.319 364.979L322.691 367.664Z" fill="#F6E7AE"/>
<path id="path1190" d="M383.3 400.844L384.691 398.749L386.659 397.764L388.055 398.463V400.434L386.659 402.53L384.691 403.518L383.3 402.822V400.844Z" fill="#72514F"/>
<path id="path1192" d="M384.691 398.749L386.659 397.764L324.661 366.68L322.691 367.664L384.435 398.777L384.691 398.749Z" fill="#F68B8F"/>
<path id="path1194" d="M383.3 400.844L384.691 398.749L322.691 367.664L321.296 369.762L383.051 400.942L383.3 400.844Z" fill="#D56667"/>
<path id="path1196" d="M383.3 402.822V400.844L321.296 369.762V371.736L383.3 402.822Z" fill="#C55153"/>
<path id="path1198" d="M391.547 404.977L392.933 402.882L394.903 401.895L396.3 402.591V404.569L394.903 406.66L392.933 407.654L391.547 406.951V404.977Z" fill="#D9D1C3"/>
<path id="path1200" d="M392.933 402.882L394.903 401.895L386.659 397.764L384.691 398.747L392.672 402.909L392.933 402.882Z" fill="#E8E2DC"/>
<path id="path1202" d="M391.547 404.977L392.933 402.882L384.691 398.747L383.3 400.844L391.293 405.072L391.547 404.977Z" fill="#D2D2D0"/>
<path id="path1204" d="M391.547 406.951V404.977L383.3 400.844V402.819L391.547 406.951Z" fill="#9F988F"/>
<path id="path1206" d="M395.715 406.955L396.993 405.032L398.812 404.125L400.088 404.766V406.583L398.812 408.508L396.993 409.416L395.715 408.77V406.955Z" fill="#C25855"/>
<path id="path1208" d="M396.993 405.032L398.812 404.125L395.021 402.228L393.208 403.135L396.752 405.056L396.993 405.032Z" fill="#F79285"/>
<path id="path1210" d="M395.715 406.955L396.993 405.032L393.208 403.135L391.925 405.065L395.491 407.046L395.715 406.955Z" fill="#D56667"/>
<path id="path1212" d="M395.715 408.77V406.955L391.925 405.065V406.878L395.715 408.77Z" fill="#A43659"/>
<path id="path1214" d="M377.607 395.199L379.576 394.211L376.545 392.692L374.577 393.679L377.349 395.226L377.607 395.199Z" fill="#8FD3C7"/>
<path id="path1216" d="M376.213 397.295L377.607 395.199L374.577 393.679L373.185 395.773L375.968 397.389L376.213 397.295Z" fill="#449C98"/>
<path id="path1218" d="M376.213 399.271V397.295L373.185 395.773V397.745L376.213 399.271Z" fill="#3C6266"/>
<path id="path1220" d="M448.357 423.379L447.08 422.737L444.564 421.479L444.199 421.528L442.803 420.831L372.507 385.642L364.575 378.802L378.323 382.719L448.625 417.909L450.019 418.606L449.915 418.796L452.429 420.052L453.712 420.694L453.053 421.931L450.836 423.048L448.357 423.379Z" fill="#28333D"/>
<path id="path1222" d="M367.724 377.605L368.313 377.015L364.575 376.162L367.724 377.605Z" fill="#7D6563"/>
<path id="path1224" d="M367.304 378.524L367.623 377.784L364.575 376.162L367.304 378.524Z" fill="#392E2B"/>
<path id="path1226" d="M367.304 377.932H367.649L367.724 377.312L364.575 376.162L367.304 377.932Z" fill="#614F49"/>
<path id="path1228" d="M373.701 384.065L376.975 381.908L377.063 379.008L373.563 378.495L367.724 377.312L367.304 377.932L371.711 381.347L373.701 384.065Z" fill="#EEBF77"/>
<path id="path1230" d="M373.701 384.065V382.091L367.304 377.932V378.524L373.701 384.065Z" fill="#C39749"/>
<path id="path1232" d="M375.091 379.993L377.063 379.008L368.313 377.015L367.724 377.312L375.091 379.993Z" fill="#F6E7AE"/>
<path id="path1234" d="M435.703 413.174L437.095 411.08L439.067 410.092L440.461 410.794V412.765L439.067 414.857L437.095 415.847L435.703 415.151V413.174Z" fill="#72514F"/>
<path id="path1236" d="M437.095 411.08L439.067 410.092L377.063 379.008L375.091 379.993L436.839 411.108L437.095 411.08Z" fill="#8FD3C7"/>
<path id="path1238" d="M435.703 413.174L437.095 411.08L375.091 379.993L373.701 382.091L435.456 413.27L435.703 413.174Z" fill="#449C98"/>
<path id="path1240" d="M435.703 415.151V413.174L373.701 382.091V384.065L435.703 415.151Z" fill="#3C6266"/>
<path id="path1242" d="M443.951 417.309L445.337 415.212L447.305 414.223L448.705 414.921V416.899L447.305 418.99L445.337 419.979L443.951 419.28V417.309Z" fill="#D9D1C3"/>
<path id="path1244" d="M445.337 415.212L447.305 414.223L439.067 410.092L437.095 411.075L445.072 415.236L445.337 415.212Z" fill="#E8E2DC"/>
<path id="path1246" d="M443.951 417.309L445.337 415.212L437.095 411.075L435.703 413.174L443.695 417.401L443.951 417.309Z" fill="#D2D2D0"/>
<path id="path1248" d="M443.951 419.28V417.308L435.703 413.174V415.148L443.951 419.28Z" fill="#9F988F"/>
<path id="path1250" d="M448.116 419.288L449.399 417.359L451.217 416.453L452.495 417.095V418.911L451.217 420.837L449.399 421.746L448.116 421.098V419.288Z" fill="#C25855"/>
<path id="path1252" d="M449.399 417.359L451.217 416.453L447.423 414.559L445.611 415.463L449.159 417.386L449.399 417.359Z" fill="#F79285"/>
<path id="path1254" d="M448.116 419.288L449.399 417.359L445.611 415.463L444.331 417.392L447.895 419.375L448.116 419.288Z" fill="#D56667"/>
<path id="path1256" d="M448.116 421.098V419.288L444.331 417.392V419.206L448.116 421.098Z" fill="#A43659"/>
<path id="path1258" d="M430.012 407.527L431.98 406.542L428.949 405.02L426.979 406.006L429.752 407.555L430.012 407.527Z" fill="#FBCD7F"/>
<path id="path1260" d="M428.621 409.625L430.012 407.527L426.979 406.006L425.589 408.104L428.373 409.719L428.621 409.625Z" fill="#F8A53C"/>
<path id="path1262" d="M428.621 411.599V409.625L425.589 408.104V410.076L428.621 411.599Z" fill="#F57F19"/>
<path id="path1264" d="M465.96 409.459H459.373L447.436 403.473V400.173L452.093 397.838H458.681L470.617 403.823V407.123L465.96 409.459Z" fill="#28333D"/>
<path id="path1266" d="M458.684 393.993H452.147L447.525 396.31V399.587L458.684 393.993Z" fill="#F8EFCF"/>
<path id="path1268" d="M470.531 406.874L465.909 409.191L465.129 405.035L468.651 403.7L470.531 403.21V406.874Z" fill="#C3AA79"/>
<path id="path1270" d="M459.371 409.191L447.525 403.255V399.587L456.416 402.826L459.371 405.527V409.191Z" fill="#C55153"/>
<path id="path1272" d="M465.909 409.191H459.371V405.527L463.481 404.356L465.909 405.527V409.191Z" fill="#EFCC95"/>
<path id="path1274" d="M459.371 405.527H465.909L470.531 403.21V399.932L459.371 405.527Z" fill="#F8EFCF"/>
<path id="path1276" d="M459.371 405.527L447.525 399.587L458.684 393.993L470.531 399.932L459.371 405.527Z" fill="#F68B8F"/>
<path id="path1278" d="M456.305 401.692L451.555 399.31H450.992L450.591 399.51V399.794L455.34 402.175H455.907L456.305 401.976V401.692Z" fill="#7D6563"/>
</g>
</g>
</g>
<defs>
<linearGradient id="paint0_linear_202_2" x1="317" y1="303" x2="283" y2="526" gradientUnits="userSpaceOnUse">
<stop stop-color="#5B73B4"/>
<stop offset="1" stop-color="#6689E3" stop-opacity="0"/>
</linearGradient>
<clipPath id="clip0_202_2">
<rect width="600" height="521" fill="white"/>
</clipPath>
</defs>
</svg>
